<!--?xml version="1.0" encoding="utf-8"?-->
<!-- Generator: Adobe Illustrator 18.1.1, SVG Export Plug-In . SVG Version: 6.00 Build 0)  -->

<svg version="1.1" id="_x32_" xmlns="http://www.w3.org/2000/svg" xmlns:xlink="http://www.w3.org/1999/xlink" x="0px" y="0px" viewBox="0 0 512 512" style="width: 256px; height: 256px; opacity: 1;" xml:space="preserve">
<style type="text/css">
	.st0{fill:#4B4B4B;}
</style>
<g>
	<path class="st0" d="M114.842,112.383c21.486,0,38.911-17.417,38.911-38.904c0-21.494-17.425-38.919-38.911-38.919
		c-21.494,0-38.919,17.425-38.919,38.919C75.924,94.966,93.348,112.383,114.842,112.383z" style="fill: rgb(34, 58, 112);"></path>
	<path class="st0" d="M245.776,197.805l62.795-30.047c8.474-3.585,12.442-13.348,8.856-21.83
		c-3.576-8.474-13.347-12.434-21.822-8.857l-56.46,19.292l-51.088-17.862c-9.756-3.413-19.979-5.272-30.304-5.506l-39.653-0.89
		c-42.239,0-79.752,14.075-89.108,60.906L0.405,312.345c-2.008,8.989,3.647,17.885,12.638,19.893
		c8.973,2.007,17.869-3.656,19.877-12.629l30.07-79.51l7.778,236.615c0,10.903,8.834,19.737,19.737,19.737
		c10.911,0,19.744-8.834,19.744-19.737l7.85-141.102l7.826,141.102c0,10.903,8.85,19.737,19.745,19.737
		c10.903,0,19.744-8.834,19.744-19.737l11.106-287.516l45.074,12.489C229.858,203.194,238.394,201.819,245.776,197.805z" style="fill: rgb(34, 58, 112);"></path>
	<path class="st0" d="M227.179,37.192h253.415v206.256H227.179v-17.222c-3.312-0.055-6.631-0.344-9.888-0.937l-1.062-0.195
		l-10.692-2.96v42.957h296.708v-10.826V15.55H205.536v103.644l21.643,7.568V37.192z" style="fill: rgb(34, 58, 112);"></path>
	<path class="st0" d="M233.724,358.683c0,21.486,17.418,38.911,38.919,38.911c21.487,0,38.912-17.425,38.912-38.911
		c0-21.494-17.425-38.911-38.912-38.911C251.142,319.772,233.724,337.189,233.724,358.683z" style="fill: rgb(34, 58, 112);"></path>
	<path class="st0" d="M272.643,417.042c-36.497,0-68.919,12.169-77.002,52.634l0.649,26.774h152.708l0.641-26.774
		C341.554,429.211,309.133,417.042,272.643,417.042z" style="fill: rgb(34, 58, 112);"></path>
	<path class="st0" d="M396.078,358.683c0,21.486,17.425,38.911,38.919,38.911c21.487,0,38.912-17.425,38.912-38.911
		c0-21.494-17.425-38.911-38.912-38.911C413.503,319.772,396.078,337.189,396.078,358.683z" style="fill: rgb(34, 58, 112);"></path>
	<path class="st0" d="M434.997,417.042c-36.497,0-68.918,12.169-77.002,52.634l0.648,26.774h152.708L512,469.676
		C503.909,429.211,471.495,417.042,434.997,417.042z" style="fill: rgb(34, 58, 112);"></path>
	<path class="st0" d="M384.66,194.056c0.351,0.43,0.844,0.672,1.351,0.672c0,0,0,0,0.008,0c0.523,0,1.016-0.242,1.359-0.672
		c0,0-0.171,0.023,0.547-0.679c20.838-20.12,51.299-32.561,51.299-59.492c0-20.979-12.364-32.476-27.306-32.186
		c-16.199,0.312-24.142,11.786-25.899,22.212c-1.757-10.427-9.693-21.9-25.9-22.212c-14.94-0.29-27.304,11.207-27.304,32.186
		c0,26.93,30.468,39.372,51.298,59.492C384.832,194.079,384.66,194.056,384.66,194.056z" style="fill: rgb(34, 58, 112);"></path>
</g>
</svg>
