<svg id="b" xmlns="http://www.w3.org/2000/svg" width="313.723" height="312.567" viewBox="0 0 313.723 312.567"><defs><style>.g{fill:#fcdc4a;}.g,.h,.i{stroke-width:0px;}.h{fill:#fff;}.i{fill:#211715;}</style></defs><g id="c"><g id="d"><path class="h" d="m132.033,251.031c-22.926-3.422-46.321-3.01-56.63-1.817-1.323,3.47-14.589,47.207-17.381,59.082-.226.96.824,1.772,1.952,1.523,20.242-4.463,55.895-4.147,69.481.009.835.255,1.709.367,2.578.333.869.033,1.742-.078,2.577-.333,13.586-4.156,49.239-4.472,69.481-.009,1.128.249,2.201-.569,1.952-1.523-3.084-11.8-16.714-55.612-18.037-59.082-10.308-1.193-33.048-1.605-55.974,1.817Z"></path><rect class="h" x="216.166" y="31.053" width="82.878" height="66.745" rx=".722" ry=".722" transform="translate(149.426 306.93) rotate(-80)"></rect><path class="h" d="m24.331,279.337h15.95c-.39.88-.78,1.77-1.17,2.65-1.51,3.37-4.86,5.55-8.55,5.55h-1c-4.22,0-7.01-4.38-5.23-8.2Z"></path><path class="h" d="m68.379,106.497c-.239.061-.477.119-.716.175-.416.097-.846-.045-1.123-.37-1.963-2.298-7.014-10.508-9.483-13.994-.49-.692-.085-1.651.751-1.794,8.702-1.488,16.368-2.677,23.26-7.14l1.578-1.022c.882,1.89,2.157,3.913,4.127,5.552,1.306,1.086,3.209,1.819,5.059,1.584-7.081,9.841-15.236,14.915-23.453,17.008Z"></path><path class="h" d="m170.791,65.773c1.285-1.236,3.011-1.695,4.486-1.637,3.211.127,4.57,1.884,5.154,2.915,1.743,3.077,1.647,8.735.456,12.231-.844,2.476-2.225,6.263-5.531,8.97-1.505,1.232-3.79,1.995-5.87,1.372-1.487,5.068-4.155,11.141-8.801,16.795-3.474,4.227-6.793,6.955-10.701,8.937.029,1.647-.009,2.393.083,4.03-2.761,2.152-15.82,12.238-16.893,12.984-.568.058-2.723,0-2.723,0-1.159-.805-15.529-11.38-17.403-12.783.086-1.433.075-2.19.082-3.322-4.287-2.083-8.131-5.399-11.786-9.847-4.724-5.749-7.403-11.933-8.876-17.052-2.039.52-4.237-.252-5.693-1.463-3.285-2.733-4.637-6.531-5.462-9.013-1.165-3.505-1.217-9.164.55-12.227.592-1.026,1.965-2.773,5.177-2.875,1.476-.047,3.198.426,4.473,1.672,0,0-10.018-39.715,41.649-39.715s37.63,40.026,37.63,40.026Z"></path><path class="h" d="m130.813,34.439c-17.549,0-34.329,3.127-47.513,8.085-.45.169-.781.463-1.051.863-.253.374-.391.787-.445,1.236-.496,4.133-.707,10.875-.197,16.264.144,1.52,1.433,2.48,2.907,2.105,15.698-4.003,28.104-5.992,46.299-5.992,18.196,0,30.601,1.989,46.299,5.992,1.474.376,2.763-.584,2.907-2.105.51-5.389.298-12.131-.197-16.264-.054-.449-.192-.862-.445-1.236-.27-.399-.601-.693-1.051-.863-13.184-4.958-29.964-8.085-47.513-8.085"></path><path class="h" d="m131.01,204.847c-4.969-12.263-6.248-16.312-10.133-28.241-5.249-16.12-10.127-33.851-13.864-50.426,1.81-2.064,4.016-4.492,5.964-6.634,1.611,1.202,16.301,12.013,17.473,12.827h2.723c1.172-.814,16.629-12.761,17.387-13.362,1.893,2.076,4.254,5.176,6.043,7.157-.874,3.901-1.82,7.865-2.816,11.859-3.23,12.98-7.03,26.25-11.04,38.58-3.89,11.93-5.17,15.98-10.14,28.24h-1.599Z"></path><path class="h" d="m132.608,204.846c4.97-12.26,6.25-16.31,10.14-28.24,4.01-12.33,7.81-25.6,11.04-38.58.99-3.97,1.93-7.91,2.8-11.79,2.37,1.52,5.64,3.87,8.59,6.45.048.042.096.084.144.125,8.759,3.218,19.095,8.276,24.151,11.292,6.57,3.93,10.546,7.867,14.626,13.587,2.48,3.47,5.611,10.5,7.5,16.111,3.292,9.779,5.448,18.634,8.5,30.944,1.725,6.958,2.927,12.258,3.287,20.588.44,10.12-4.875,17.72-13.095,20.06l-17.472,3.583-20.891-14.43c-17.4.02-50.024.04-67.774.06l-36.052,11.452-16.635-.771c-.357-.053-.674-.123-1.123-.298-7.184-2.807-10.494-7.625-10.056-17.742.361-8.334,2.91-20.331,4.205-25.564,3.269-13.202,5.388-20.263,8.167-29.75,1.179-4.025,4.491-12.02,6.827-16.188,4.216-7.521,8.722-10.938,15.556-14.389,3.23-1.631,11.444-4.924,23.042-8.903l1.104-.409c2.749-2.327,5.664-4.413,7.843-5.809,3.729,16.559,8.601,34.267,13.844,50.368,3.885,11.929,5.164,15.978,10.133,28.241h1.599Z"></path><path class="h" d="m81.736,228.214c6.501-.994,12.799-.923,18.324,3.705,3.26,2.731,9.368,6.994,10.255,11.764.353,1.899-.601,4.984-2.621,6.109l-4.572,13.246c1.643,1.496,1.904,2.687,1.144,3.766-1.025,1.457-2.37,2.012-4.161,1.984s-3.006-.583-4.5-1.563c.618,1.229-2.778,3.088-3.666,3.326-3.296.883-5.677-.525-8.119-2.481,1.025,2.96-3.279,6.483-6.7,4.377-3.503-2.157-6.033-3.896-8.107-7.087-2.014-3.098-2.953-6.525-4.182-8.812-1.95-3.856-5.773-6.301-5.423-8.844.521-4.713,4.985-10.753,7.559-13.554,3.321-3.615,10.109-5.224,14.77-5.937"></path><path class="h" d="m182.377,270.215c-.56.372-1.12.721-1.665,1.029-1.26.712-4.127,1.542-5.941.504-1.123-.643-1.707-1.702-1.809-2.812-.102.06-.158.093-.158.093-2.436,1.434-6.365,2.153-8.546.244-1.269-1.111-2.037-4.147-.513-6.348.208-.373.498-.776.856-1.204-1.268.497-3.64,1.146-5.009-1.705-.905-1.887-.107-4.808,2.167-6.992.859-.824,2.639-2.932,4.401-4.477.378-.329.762-.656,1.147-.979l-1.6-.238c-1.177.071-2.606-1.018-3.191-2.144-.494-.951-.355-2.446-.011-3.38.802-2.177,4.49-4.562,8.3-6.576,4.072-2.153,6.97-3.007,11.256-3.604,4.039-.398,6.821-.477,10.865.171,3.658.586,6.233,2.287,8.856,4.033,1.582,1.053,4.95,4.639,5.777,6.4,1.493,3.178,2.279,6.138,2.053,9.02-.376,4.785-1.603,7.479-4.591,10.59-1.739,1.81-4.768,4.57-6.728,6.121-2.749,2.175-5.386,2.458-7.305,1.635-1.544-.662-1.717-3.571-1.096-4.723,0,0,.059-.109.118-.218l-.056.039c-.615.431-1.154.807-1.554,1.09-1.406.996-3.722,2.905-6.023,4.431Z"></path><g id="e"><path class="g" d="m41.661,267.667c1.77,0,2.96,1.81,2.25,3.43-.98,2.22-2.28,5.2-3.63,8.24h-15.95c.01-.04.03-.07.05-.11,1.96-4,3.99-8.05,5.25-10.49.34-.66,1.01-1.07,2.15-1.07h9.88Z" style="fill: rgb(34, 58, 112);"></path><path class="g" d="m84.665,62.953c.01.038.018.077.028.115,0,0,.101.385.28,1.065.585-.191,1.269-.318,2.065-.343,1.476-.047,3.198.426,4.473,1.672l6.853-1.989c7.912-2.645,11.504-4.078,15.302-5.755-9.953.897-18.79,2.637-29.002,5.236Z" style="fill: rgb(34, 58, 112);"></path><path class="g" d="m188.437,28.533c-2.857-5.639-3.22-9.494-4.417-15.735-1.806-9.414-16.244-15.551-25.969-4.425l-1.278,1.907c-7.075-4.8-15.59-7.458-26.073-7.458-11.15,0-20.618,3.322-28.195,8.89-7.827,5.751-16.56,15.516-18.956,30.723,13.147-4.905,29.824-7.995,47.265-7.995,17.549,0,34.329,3.127,47.513,8.085.45.169.781.463,1.051.863.253.374.391.787.445,1.236.088.736.167,1.558.235,2.437l2.884-.024c7.553.64,12.305-4.099,16.01-9.571-5.116-2.402-7.575-3.13-10.515-8.933Z" style="fill: rgb(34, 58, 112);"></path><path class="g" d="m157.582,58.884c3.497,3.525,7.857,6.904,12.187,8.235,1.239-2.256,3.586-3.058,5.508-2.982.417.016.804.061,1.159.128.19-.759.299-1.196.299-1.196.014-.055.025-.107.039-.162-6.753-1.715-12.91-3.056-19.192-4.023Z" style="fill: rgb(34, 58, 112);"></path><path class="g" d="m142.462,177.485c.094-.288.189-.581.287-.879,4.01-12.33,7.81-25.6,11.04-38.58.216-.866.429-1.73.64-2.593-2.776,4.02-6.876,9.364-10.017,11.337-.451-.589-1.307-1.736-2.372-3.154-1.031.738-1.942,1.389-1.942,1.389-2.469,1.827-5.426,4.393-8.284,5.9-2.857-1.507-5.814-4.073-8.283-5.9,0,0-.857-.676-1.878-1.481-1.097,1.46-1.98,2.644-2.441,3.246-3.144-1.974-7.247-7.325-10.023-11.345,3.368,13.797,7.404,28.025,11.688,41.18,3.885,11.929,5.164,15.978,10.133,28.241h1.599c4.846-11.954,6.184-16.103,9.853-27.362Z" style="fill: rgb(34, 58, 112);"></path></g></g><g id="f"><path class="i" d="m161.82,62.677c2.515,1.973,5.238,3.608,7.947,4.442,1.24-2.255,3.588-3.057,5.51-2.981v-1.605c-6.171-1.538-11.875-2.753-17.689-3.648,1.305,1.319,2.732,2.616,4.232,3.793Z"></path><path class="i" d="m110.589,59.033c-2.941,1.211-6.42,2.499-12.224,4.44l-6.853,1.989c-1.275-1.246-2.998-1.718-4.473-1.672v-1.43c9.235-2.276,17.458-3.824,26.642-4.65-1.017.45-2.018.881-3.091,1.323Z"></path><path class="i" d="m79.857,81.303c-4.704,3.002-9.985,4.522-15.416,5.6-1.402.278-2.808.53-4.216.774-1.329.231-3.008.257-4.166,1.008-1.306.847-1.897,2.501-1.458,3.991.295,1.001,1.127,1.911,1.699,2.768,2.357,3.531,4.573,7.165,7.053,10.612.471.655.932,1.36,1.491,1.943,1.255,1.309,2.867,1.158,4.469.736,2.387-.629,4.709-1.508,6.938-2.566,5.765-2.736,10.739-6.948,14.824-11.814.833-.992.973-2.422,0-3.394-.856-.856-2.557-.997-3.394,0-3.203,3.815-6.879,7.18-11.207,9.676-1.782,1.028-3.64,1.906-5.58,2.59-.94.331-1.894.625-2.858.879.026-.007-.658.134-.674.171l.875.328c-.054-.063-.107-.127-.159-.191.008-.02-.305-.385-.104-.127.181.232-.22-.299-.266-.362-2.214-3.024-4.187-6.228-6.243-9.359-.468-.713-.938-1.425-1.416-2.133-.202-.299-.398-.701-.655-.959-.091-.091-.158-.318-.264-.377-1.095,1.329-1.249,1.893-.462,1.694.22-.038.44-.075.661-.113,2.477-.423,4.956-.842,7.417-1.356,5.455-1.14,10.809-2.858,15.535-5.875,2.596-1.657.191-5.813-2.423-4.145h0Z"></path><path class="i" d="m115.45,119.593c.061-1.033.07-2.066.08-3.1.006-.612-.272-1.266-.703-1.697-.217-.234-.475-.399-.772-.496-.286-.15-.594-.219-.925-.207-.621.028-1.264.232-1.697.703s-.697,1.045-.703,1.697c-.01,1.034-.019,2.067-.08,3.1-.012.33.056.639.207.925.097.298.262.555.496.772.217.234.475.399.772.496.286.15.594.219.925.207.621-.028,1.264-.232,1.697-.703l.375-.486c.217-.374.326-.778.328-1.211h0Z"></path><path class="i" d="m147.6,116.493c0,.968.015,1.934.07,2.9-.012.33.056.639.207.925.097.298.262.555.496.772.217.234.475.399.772.496.286.15.594.219.925.207.621-.028,1.264-.232,1.697-.703.417-.454.739-1.061.703-1.697-.055-.966-.07-1.932-.07-2.9,0-.615-.268-1.262-.703-1.697-.217-.234-.475-.399-.772-.496-.286-.15-.594-.219-.925-.207-.621.028-1.264.232-1.697.703s-.703,1.047-.703,1.697h0Z"></path><path class="i" d="m98.998,65.788c5.374-1.8,10.693-3.713,15.883-5.992,1.154-.506,1.508-2.281.861-3.284-.771-1.196-2.049-1.403-3.284-.861-.462.203-.925.404-1.389.603-.14.06-.279.122-.42.179.109-.044.444-.186.149-.063-.24.1-.48.2-.72.299-1.075.442-2.156.868-3.242,1.28-3.012,1.142-6.059,2.187-9.113,3.21-1.188.398-2.091,1.672-1.676,2.952.383,1.182,1.678,2.103,2.952,1.676h0Z"></path><path class="i" d="m155.893,60.58c3.823,3.849,8.394,7.493,13.699,8.987,1.208.34,2.666-.418,2.952-1.676.29-1.275-.383-2.588-1.676-2.952-.553-.156-1.098-.336-1.633-.545-.044-.017-.447-.182-.193-.075s-.15-.068-.193-.088c-.29-.131-.576-.269-.86-.412-1.108-.561-2.171-1.211-3.194-1.916-.246-.17-.49-.343-.732-.52-.121-.089-.242-.179-.363-.268-.128-.094-.252-.188-.053-.036-.51-.39-1.004-.801-1.492-1.219-.994-.851-1.946-1.747-2.868-2.675-.886-.892-2.519-.953-3.394,0-.882.961-.946,2.442,0,3.394h0Z"></path><path class="i" d="m89.376,86.933c1.762,7.972,5.43,15.439,10.687,21.686,5.143,6.112,11.81,11.011,19.854,12.251,1.279.197,2.581-.325,2.952-1.676.312-1.137-.388-2.754-1.676-2.952-7.33-1.13-13.051-5.449-17.736-11.017-4.725-5.615-7.874-12.425-9.453-19.568-.666-3.015-5.295-1.739-4.629,1.276h0Z"></path><path class="i" d="m107.108,136.625c3.031,4.367,6.359,9.276,10.891,12.221,1.183.769,2.527.128,3.284-.861,3.569-4.665,6.928-9.545,10.865-13.914,1.096-1.217.819-2.856-.486-3.769-5.918-4.143-11.592-8.631-17.47-12.83-.823-.588-2.242-.357-2.908.375-2.133,2.342-4.515,4.621-6.365,7.196-.757,1.053-.183,2.673.861,3.284,1.209.707,2.525.195,3.284-.861,1.464-2.036,3.796-4.227,5.615-6.224l-2.908.375c5.878,4.199,11.552,8.687,17.47,12.83l-.486-3.769c-4.209,4.672-7.799,9.897-11.615,14.886l3.284-.861c-1.807-1.174-3.286-2.905-4.668-4.54-1.609-1.903-3.081-3.913-4.501-5.959-.738-1.064-2.103-1.551-3.284-.861-1.053.616-1.604,2.214-.861,3.284h0Z"></path><path class="i" d="m152.358,134.222c-1.418,2.044-2.891,4.049-4.5,5.949-1.381,1.631-2.859,3.357-4.659,4.53l3.284.861c-3.816-4.988-7.407-10.214-11.615-14.886l-.486,3.769c2.801-1.946,5.453-4.14,8.153-6.22,1.907-1.47,3.813-2.941,5.718-4.414,1.336-1.033,2.913-2.243,4.004-3.101h-3.394c1.041,1.152,2.027,2.353,3.011,3.554.848,1.034,2.018,2.275,2.683,3.201.756,1.051,2.09,1.559,3.284.861,1.038-.607,1.622-2.226.861-3.284-1.931-2.687-4.227-5.27-6.445-7.726-.942-1.042-2.418-.768-3.394,0-3.109,2.446-5.865,4.542-8.978,6.94-2.625,2.022-5.204,4.154-7.926,6.045-1.309.909-1.579,2.556-.486,3.769,3.936,4.37,7.296,9.249,10.865,13.914.757.99,2.089,1.64,3.284.861,4.522-2.947,7.853-7.838,10.881-12.201.739-1.065.196-2.665-.861-3.284-1.194-.698-2.543-.207-3.284.861h0Z"></path><path class="i" d="m168.024,85.657c-1.465,6.628-4.276,12.972-8.455,18.345-2.097,2.696-4.528,5.272-7.344,7.227-2.597,1.803-5.442,3.083-8.438,4.062-2.924.955-1.672,5.592,1.276,4.629,3.369-1.101,6.663-2.518,9.584-4.546,3.181-2.208,5.918-4.946,8.315-7.977,4.732-5.982,8.043-13.016,9.689-20.463.665-3.01-3.961-4.296-4.629-1.276h0Z"></path><path class="i" d="m172.488,67.47c1.012-.904,2.428-1.124,3.725-.803.516.128.993.327,1.415.66-.205-.161.284.298.279.293.484.519-.192-.336.167.187,1.428,2.075,1.421,5.027,1.212,7.435-.212,2.448-1.082,4.91-2.231,7.074-1.158,2.182-3.429,5.527-6.334,5.135-1.283-.173-2.576.308-2.952,1.676-.307,1.118.383,2.778,1.676,2.952,7.486,1.01,11.815-6.107,13.804-12.307,1.628-5.074,1.726-13.062-3.092-16.509-3.346-2.395-8.075-1.857-11.064.812-2.309,2.062,1.095,5.447,3.394,3.394h0Z"></path><path class="i" d="m93.209,63.765c-2.741-2.486-6.714-3.072-10.065-1.462-2.436,1.17-3.874,3.547-4.513,6.099-1.461,5.835-.039,12.511,3.24,17.51,2.237,3.41,5.807,6.5,10.162,5.948,1.286-.163,2.4-.986,2.4-2.4,0-1.17-1.105-2.564-2.4-2.4-3.217.408-5.358-2.238-6.758-4.811-1.192-2.19-2.099-4.729-2.316-7.221s-.179-5.358,1.209-7.527c.093-.133.069-.107-.073.077.07-.088.144-.172.221-.254.062-.061.544-.511.362-.371.427-.327.903-.522,1.422-.644,1.312-.31,2.705-.065,3.714.85,2.283,2.071,5.688-1.313,3.394-3.394h0Z"></path><path class="i" d="m123.57,102.58c2.482,1.322,5.159,1.884,7.971,1.866,2.909-.019,5.801-.62,8.118-2.441.992-.78.877-2.589,0-3.394-1.052-.966-2.336-.832-3.394,0,.743-.584.248-.192.056-.068-.156.101-.317.194-.481.281-.203.107-.791.285-.086.066-.224.069-.44.171-.664.243-.607.197-1.228.323-1.857.427.35-.058.17-.022-.076.003-.182.018-.365.034-.547.045-.439.029-.88.04-1.32.037-.394-.002-.788-.016-1.182-.043-.181-.012-.361-.027-.541-.045-.098-.01-.755-.134-.161-.016-.584-.116-1.163-.216-1.735-.388-.243-.073-.48-.161-.72-.244-.577-.2.442.219-.079-.03-.297-.142-.591-.289-.882-.444-1.108-.59-2.662-.316-3.284.861-.588,1.113-.322,2.653.861,3.284h0Z"></path><path class="i" d="m130.148,83.878c.339,1.305.665,2.63.859,3.965l-.086-.638c.023.183.033.363.015.547l.086-.638c-.013.085-.031.165-.06.246l.242-.573c-.025.057-.051.106-.086.158l.375-.486c-.04.049-.079.088-.128.128l.486-.375c-.099.064-.204.116-.311.166l.573-.242c-.171.072-.341.125-.525.154l.638-.086c-.166.02-.327.018-.493,0l.638.086c-.186-.026-.368-.072-.554-.097-.319-.1-.638-.114-.957-.043-.319.014-.617.109-.892.285-.498.291-.973.862-1.103,1.434-.14.614-.11,1.304.242,1.849.312.485.834,1.021,1.434,1.103.457.062.9.178,1.365.198.73.032,1.405-.195,2.055-.497.812-.376,1.451-1.13,1.666-2.005.183-.748.107-1.37-.019-2.119-.214-1.277-.507-2.543-.832-3.796-.151-.579-.589-1.134-1.103-1.434s-1.273-.429-1.849-.242c-1.252.405-2.015,1.65-1.676,2.952h0Z"></path><path class="i" d="m109.736,72.551c-.656,2.152-.229,7.102,3.813,7.523,5.341-.032,5.625-6.017,3.827-8.831-1.472-2.304-5.801-3.262-7.64,1.308Z"></path><path class="i" d="m152.508,72.552c.657,2.152.229,7.102-3.812,7.523-5.341-.032-5.626-6.017-3.828-8.831,1.472-2.304,5.801-3.262,7.64,1.308Z"></path><path class="i" d="m159.747,10.07c2.686-3.017,6.237-5.193,10.244-5.267,3.255-.06,6.476,1.152,8.783,3.371,1.009.97,1.949,2.289,2.39,3.387.824,2.051.997,4.391,1.405,6.55.9,4.766,2.322,9.472,4.904,13.622,1.192,1.915,2.657,3.548,4.507,4.841,1.77,1.237,3.813,2.054,5.759,2.965l-.861-3.284c-1.572,2.304-3.38,4.621-5.701,6.216-2.502,1.719-5.218,2.385-8.237,2.166-1.294-.094-2.4,1.17-2.4,2.4,0,1.377,1.102,2.306,2.4,2.4,3.765.273,7.539-.673,10.659-2.821,3.033-2.089,5.363-4.918,7.423-7.938.684-1.003.256-2.761-.861-3.284-3.647-1.706-6.648-2.909-8.728-6.384-2.647-4.423-3.717-9.301-4.629-14.309-.394-2.164-.762-4.208-1.794-6.175-.847-1.616-2.058-3.104-3.443-4.289C178.433,1.553,174.426.007,170.286,0c-5.429-.009-10.376,2.681-13.933,6.675-2.048,2.3,1.335,5.707,3.394,3.394h0Z"></path><path class="i" d="m180.28,42.363c0-1.183-.379-2.487-.621-3.64-.271-1.291-.592-2.572-.966-3.837-.706-2.388-1.606-4.719-2.663-6.973-1.83-3.903-4.265-7.531-7.17-10.716-2.744-3.009-6.014-5.473-9.288-7.872-3.596-2.634-7.526-4.713-11.735-6.189-9.567-3.355-20.54-3.593-30.335-1.102-8.539,2.171-16.284,6.757-22.515,12.958-7.298,7.264-12.129,16.646-13.771,26.813-.206,1.278.331,2.583,1.676,2.952,1.144.314,2.744-.389,2.952-1.676,1.357-8.4,4.877-16.248,10.562-22.611,5.115-5.725,11.411-10.208,18.743-12.726,8.8-3.021,18.71-3.387,27.726-1.09,7.627,1.943,14.422,6.234,20.189,11.528,3.179,2.918,5.79,6.353,7.82,10.158,1.108,2.077,2.024,4.236,2.759,6.473.427,1.299.795,2.616,1.11,3.947.163.69.311,1.384.445,2.08.054.284.106.568.156.852.022.126.125,1.261.125.671,0,3.089,4.8,3.094,4.8,0h0Z"></path><path class="i" d="m87.004,62.435l-.03-.12c-.074-.312-.217-.584-.43-.816-.169-.261-.394-.467-.673-.618-.275-.175-.573-.27-.892-.285-.319-.071-.638-.057-.957.043l-.573.242c-.361.213-.648.5-.861.861l-.242.573c-.114.425-.114.851,0,1.276l.03.12c.074.312.217.584.43.816.169.261.394.467.673.618.275.175.573.27.892.285.319.071.638.057.957-.043l.573-.242c.361-.213.648-.5.861-.861l.242-.573c.114-.425.114-.851,0-1.276h0Z"></path><path class="i" d="m174.466,62.275c-.011.054-.029.106-.04.16-.1.319-.114.638-.043.957.014.319.109.617.285.892.151.28.357.504.618.673.232.212.504.355.816.43l.638.086c.433-.001.837-.111,1.211-.328l.486-.375c.297-.299.503-.652.617-1.059.011-.054.029-.106.04-.16.1-.319.114-.638.043-.957-.014-.319-.109-.617-.285-.892-.151-.28-.357-.504-.618-.673-.232-.212-.504-.355-.816-.43l-.638-.086c-.433.001-.837.111-1.211.328l-.486.375c-.297.299-.503.652-.617,1.059h0Z"></path><path class="i" d="m138.886,142.933c-2.749,2.045-5.225,4.257-8.284,5.9h2.423c-3.059-1.642-5.535-3.855-8.283-5.9-1.041-.774-2.68-.17-3.284.861-.716,1.223-.182,2.508.861,3.284,1.375,1.023,2.738,2.132,4.231,3.246.738.551,1.487,1.088,2.259,1.59.858.558,1.95,1.391,3.005,1.391,1.019,0,2.053-.778,2.885-1.313.774-.498,1.523-1.032,2.261-1.58,1.532-1.139,2.936-2.283,4.349-3.333,1.038-.772,1.567-2.077.861-3.284-.599-1.024-2.238-1.639-3.284-.861h0Z"></path><path class="i" d="m59.32,219.037c.239-.103.195-.085-.133.054.099-.041.198-.081.297-.121.175-.07.35-.138.526-.204.38-.143.763-.277,1.149-.403.721-.235,1.45-.442,2.187-.621.72-.175,1.447-.324,2.178-.443.198-.032.417-.039.61-.092-.648.178-.228.031-.037.009.389-.045.779-.079,1.17-.105,1.25-.084,2.461-1.044,2.4-2.4-.055-1.228-1.058-2.49-2.4-2.4-3.6.241-7.067,1.149-10.37,2.58-.514.223-.962.921-1.103,1.434-.158.574-.087,1.339.242,1.849.33.512.822.964,1.434,1.103.671.153,1.224.029,1.849-.242h0Z"></path><path class="i" d="m75.45,168.195c.684,11.036,1.537,22.058,3.165,33,.191,1.283,1.811,1.99,2.952,1.676,1.374-.378,1.868-1.665,1.676-2.952-1.564-10.514-2.336-21.121-2.993-31.724-.19-3.069-4.992-3.09-4.8,0h0Z"></path><path class="i" d="m183.379,173.365c-.435,14.552-2.194,28.952-3.718,43.415-.136,1.291,1.2,2.4,2.4,2.4,1.411,0,2.264-1.105,2.4-2.4,1.524-14.463,3.282-28.863,3.718-43.415.092-3.09-4.708-3.087-4.8,0h0Z"></path><path class="i" d="m164.702,135.138c4.701,1.738,9.295,3.75,13.811,5.92,3.81,1.831,7.62,3.737,11.19,6.009,3.696,2.353,6.974,5.194,9.794,8.551,2.745,3.267,4.817,6.851,6.586,10.725,3.949,8.649,6.378,17.993,8.735,27.177,2.43,9.468,5.271,19.037,5.997,28.824.351,4.725.275,9.42-2.135,13.646-1.989,3.487-5.184,5.959-9.028,7.09-2.957.87-1.699,5.503,1.276,4.629,8.807-2.59,14.168-10.413,14.821-19.38.369-5.065-.426-10.398-1.347-15.37-.951-5.132-2.313-10.189-3.575-15.25-2.451-9.826-4.865-19.81-8.648-29.226-1.756-4.372-3.677-8.815-6.468-12.64-2.88-3.947-6.124-7.462-10.012-10.432-3.994-3.05-8.464-5.399-12.957-7.618-5.461-2.697-11.05-5.171-16.763-7.283-1.216-.449-2.63.502-2.952,1.676-.368,1.341.456,2.501,1.676,2.952h0Z"></path><path class="i" d="m52.108,242.969c-1.715-.29-3.826-1.503-4.988-2.412-1.438-1.125-2.255-2.164-3.032-3.723-1.815-3.639-1.561-8.612-1.176-12.774.93-10.037,3.356-19.905,5.898-29.634,1.232-4.716,2.537-9.411,3.894-14.092,1.237-4.267,2.396-8.561,4.002-12.708,1.744-4.505,3.684-9.04,6.32-13.104,2.501-3.855,5.8-6.875,9.744-9.205,8.336-4.924,17.797-7.582,27.057-10.949,1.218-.443,2.039-1.631,1.676-2.952-.323-1.175-1.728-2.121-2.952-1.676-8.599,3.127-17.581,5.785-25.714,10.053-4.404,2.311-8.51,5.196-11.633,9.11-3.303,4.138-5.562,8.868-7.611,13.719-3.826,9.059-6.272,18.709-8.797,28.197-2.781,10.448-5.349,20.984-6.533,31.752-.603,5.489-.862,11.33,1.562,16.445.921,1.944,2.329,3.675,4.004,5.018,1.949,1.561,4.512,3.144,7.002,3.565,1.277.216,2.584-.337,2.952-1.676.316-1.152-.391-2.735-1.676-2.952h0Z"></path><path class="i" d="m120.809,204.163c-8.839-15.322-17.577-30.715-25.74-46.41-.558-1.073-1.113-2.147-1.665-3.223-.08-.156-.569-.734-.324-.442.185.221-.454.371.064.087.462-.254.941-1.003,1.321-1.396,1.841-1.903,3.762-3.727,5.693-5.538,1.124-1.055.825-3.021-.486-3.769-1.148-.655-2.296-1.311-3.444-1.966-.574-.328-1.148-.655-1.722-.983-.287-.164-.574-.328-.861-.491-.524-.347-.57-.333-.137.041l.328,1.211c-.026.603.214-.221.353-.45.204-.336.423-.664.653-.983.387-.536.816-1.04,1.257-1.533,1.247-1.398,2.612-2.689,4.022-3.919,2.552-2.227,5.277-4.256,8.124-6.089l-3.526-1.434c4.866,21.561,10.979,42.897,18.291,63.758,1.754,5.004,3.697,9.937,5.686,14.851.486,1.201,1.599,2.048,2.952,1.676,1.139-.313,2.166-1.744,1.676-2.952-7.82-19.316-13.993-39.326-19.295-59.468-1.672-6.352-3.236-12.733-4.682-19.141-.333-1.473-2.261-2.249-3.526-1.434-4.486,2.889-8.871,6.226-12.532,10.121-1.563,1.663-4.101,4.216-4.238,6.639-.116,2.046,1.498,2.868,3.032,3.743,1.722.983,3.444,1.966,5.166,2.949l-.486-3.769c-1.755,1.646-3.502,3.303-5.188,5.02-1.697,1.728-3.91,3.643-3.097,6.343.642,2.133,2.05,4.21,3.08,6.181,1.107,2.117,2.224,4.229,3.351,6.336,4.49,8.396,9.121,16.716,13.818,24.997,2.627,4.631,5.276,9.25,7.936,13.861,1.543,2.675,5.693.261,4.145-2.423h0Z"></path><path class="i" d="m134.923,205.484c7.752-19.14,13.881-38.959,19.152-58.914,1.726-6.536,3.345-13.101,4.828-19.696l-3.526,1.434c2.84,1.833,5.556,3.853,8.104,6.075,1.382,1.205,2.722,2.465,3.949,3.829.459.51.907,1.031,1.311,1.586.22.303.429.614.626.932.104.168.443,1.053.421.556l.328-1.211c.43-.379.384-.394-.139-.045-.287.164-.573.328-.86.492-.574.328-1.147.656-1.721.984-1.149.657-2.299,1.313-3.449,1.968-1.312.747-1.609,2.715-.486,3.769,1.618,1.52,3.231,3.046,4.795,4.621.702.707,1.39,1.427,2.074,2.153.578.613.34.384.229.235-.195-.263.219-.404-.136-.127-.335.262-.617,1.202-.825,1.606-2.009,3.896-4.058,7.772-6.135,11.631-4.292,7.974-8.705,15.883-13.176,23.757-2.474,4.357-4.968,8.704-7.471,13.045-1.546,2.681,2.6,5.101,4.145,2.423,9.471-16.425,18.982-32.896,27.505-49.839.673-1.338,1.114-2.643.598-4.119-.444-1.271-1.532-2.227-2.446-3.172-1.863-1.928-3.809-3.773-5.763-5.608l-.486,3.769c1.437-.819,2.874-1.639,4.31-2.46,1.197-.684,2.802-1.293,3.519-2.542,1.438-2.506-1.545-5.713-3.088-7.477-3.762-4.301-8.526-7.887-13.31-10.976-1.263-.816-3.195-.038-3.526,1.434-4.848,21.563-10.976,42.904-18.292,63.761-1.755,5.003-3.698,9.936-5.688,14.849-.487,1.202.53,2.637,1.676,2.952,1.372.377,2.464-.47,2.952-1.676h0Z"></path><path class="i" d="m101.238,237.043c18.914,0,37.828,0,56.742,0,4.892,0,9.783,0,14.675,0,3.089,0,3.094-4.8,0-4.8-18.963,0-37.926,0-56.888,0-4.843,0-9.685,0-14.528,0-3.089,0-3.094,4.8,0,4.8h0Z"></path><path class="i" d="m2.318,237.047h38.5c3.089,0,3.094-4.8,0-4.8H2.318c-3.089,0-3.094,4.8,0,4.8h0Z"></path><path class="i" d="m221.968,237.047h39.69c3.089,0,3.094-4.8,0-4.8h-39.69c-3.089,0-3.094,4.8,0,4.8h0Z"></path><path class="i" d="m130.813,32.039c-9.017.015-18.032.819-26.906,2.424-4.083.739-8.136,1.656-12.131,2.776-1.823.511-3.635,1.065-5.431,1.664-1.754.586-4.116,1.053-5.456,2.387-1.44,1.434-1.522,3.394-1.682,5.302-.159,1.893-.244,3.792-.278,5.691-.037,2.054-.012,4.111.099,6.162.109,2.007.08,4.191,1.61,5.704,1.659,1.64,3.711,1.354,5.768.838,1.894-.475,3.793-.933,5.698-1.366,3.761-.856,7.545-1.614,11.353-2.231,7.939-1.287,15.973-1.854,24.01-1.968,8.433-.12,16.883.176,25.26,1.192,7.66.93,15.223,2.545,22.701,4.426,2.042.514,4.084.668,5.669-.995,1.433-1.504,1.396-3.655,1.502-5.599.214-3.943.151-7.918-.178-11.854-.159-1.904-.244-3.87-1.682-5.302-1.342-1.336-3.701-1.801-5.456-2.387-3.799-1.269-7.666-2.332-11.57-3.219-8.532-1.939-17.266-3.08-26.005-3.485-2.296-.106-4.594-.156-6.893-.16-3.089-.005-3.093,4.795,0,4.8,15.503.025,31.179,2.296,45.789,7.598.159.058.933.389.766.235s.077.175.087.258c.082.725.152,1.466.208,2.199.131,1.715.204,3.435.235,5.155.034,1.915.014,3.831-.078,5.744-.018.37-.073,2.651-.069,2.649-.148.096-1.244-.315-1.462-.369-.413-.103-.826-.206-1.239-.307-.948-.233-1.897-.461-2.847-.683-1.781-.417-3.566-.813-5.357-1.185-3.423-.709-6.865-1.323-10.326-1.816-15.163-2.161-30.801-2.373-46.024-.687-7.096.786-14.119,2.062-21.069,3.688-.882.206-1.762.417-2.642.633-.376.092-2.711.907-2.907.727-.049-.045.135-.005.098-.088-.281-.629-.134-1.866-.168-2.561-.175-3.628-.119-7.277.157-10.898.056-.734.122-1.468.205-2.2.009-.082.082-.237.153-.332-.25.334.49-.084.703-.161,1.615-.586,3.245-1.132,4.886-1.642,3.54-1.099,7.133-2.028,10.756-2.809,7.883-1.699,15.905-2.683,23.961-3.018,2.061-.086,4.123-.126,6.185-.129,3.088-.005,3.094-4.805,0-4.8h0Z"></path><path class="i" d="m116.055,61.624c-1.056-.363-2.113-.726-3.169-1.089-.319-.1-.638-.114-.957-.043-.319.014-.617.109-.892.285-.28.151-.504.357-.673.618-.212.232-.355.504-.43.816-.14.614-.11,1.304.242,1.849l.375.486c.299.297.652.503,1.059.617l3.169,1.089c.319.1.638.114.957.043.319-.014.617-.109.892-.285.28-.151.504-.357.673-.618.212-.232.355-.504.43-.816.14-.614.11-1.304-.242-1.849l-.375-.486c-.299-.297-.652-.503-1.059-.617h0Z"></path><path class="i" d="m2.318,237.047h38.5c3.089,0,3.094-4.8,0-4.8H2.318c-3.089,0-3.094,4.8,0,4.8h0Z"></path><path class="i" d="m221.968,237.047h39.69c3.089,0,3.094-4.8,0-4.8h-39.69c-3.089,0-3.094,4.8,0,4.8h0Z"></path><path class="i" d="m67.54,266.653c0-.616-.277.573-.351.817-.167.553-.333,1.106-.5,1.659-.341,1.134-.681,2.269-1.02,3.404-.679,2.27-1.354,4.54-2.025,6.812-1.296,4.384-2.578,8.772-3.835,13.168-1.038,3.631-2.065,7.267-3.033,10.917-.34,1.281-.693,2.562-.983,3.856-.597,2.667,1.124,5.08,3.992,4.958,1.832-.078,3.75-.716,5.561-1.022,1.722-.291,3.451-.544,5.185-.758,4.098-.506,8.216-.853,12.339-1.09,8.321-.478,16.678-.528,25.002-.104,6.624.338,12.985.797,19.352,2.421,1.898.484,3.685.984,5.678.854,1.687-.11,3.285-.712,4.921-1.09,2.961-.685,5.847-1.103,8.705-1.421,7.897-.88,15.872-1.119,23.813-1.029,8.19.093,16.415.531,24.535,1.632,1.796.243,3.587.528,5.369.855,1.927.354,4.264,1.282,6.12.327,1.112-.572,1.962-1.616,2.069-2.893.074-.889-.199-1.734-.431-2.585-.41-1.507-.837-3.01-1.268-4.512-2.485-8.648-5.115-17.255-7.76-25.855-.694-2.257-1.391-4.513-2.091-6.769-.912-2.941-5.548-1.686-4.629,1.276,2.728,8.794,5.425,17.598,8.039,26.426.977,3.299,1.947,6.6,2.862,9.916.132.478.19,1.322.468,1.727.294.426.174-.6.379-.842,2.371-2.787.482-.006.441-.261-.014-.088-1.295-.271-1.439-.3-1.68-.335-3.369-.624-5.063-.881-15.581-2.355-31.688-2.722-47.386-1.422-3.348.277-6.694.655-10.01,1.202-1.379.227-2.753.488-4.113.806-1.382.323-2.763.89-4.187.912-1.533.024-2.92-.508-4.393-.86-1.304-.312-2.621-.568-3.943-.793-3.337-.567-6.708-.954-10.08-1.24-15.646-1.328-31.691-.965-47.23,1.323-1.757.259-3.51.552-5.253.894-.388.076-.776.155-1.163.236-.807.169-.502-.082-.114.383.182.218.081,1.289.351.854.049-.079.076-.314.094-.388.076-.314.155-.627.233-.94.797-3.162,1.671-6.305,2.554-9.443,2.361-8.4,4.835-16.769,7.338-25.127.3-1,.6-2,.901-3,.281-.933.798-2.029.798-3.011,0-3.089-4.8-3.094-4.8,0h0Z"></path><path class="i" d="m108.232,251.058c1.016.339,2.398.19,3.465.258,1.264.08,2.527.169,3.79.266,2.417.188,4.832.409,7.243.666,2.566.274,5.128.587,7.682.956.521.075,1.09.23,1.618.23.684,0,1.431-.204,2.109-.301,1.253-.179,2.508-.343,3.765-.497,9.44-1.155,18.948-1.743,28.456-1.863,3.086-.039,3.095-4.839,0-4.8-11.703.147-23.39,1.028-34.968,2.746h1.276c-4.029-.596-8.072-1.098-12.126-1.495-1.922-.188-3.846-.353-5.771-.497-.946-.071-1.893-.136-2.84-.197-.468-.03-.937-.059-1.405-.086-.185-.011-1.374-.134-1.018-.015-2.937-.979-4.197,3.655-1.276,4.629h0Z"></path><path class="i" d="m129.372,258.104c-.001,11.991-.044,23.981-.066,35.972-.004,2.051-.009,4.102-.009,6.153,0,3.089,4.8,3.094,4.8,0,.001-11.857.045-23.714.066-35.572.004-2.184.009-4.369.009-6.553,0-3.089-4.8-3.094-4.8,0h0Z"></path><path class="i" d="m117.778,264.513c-.781-1.488-1.627-2.945-2.451-4.41-5.647-10.041-11.423-20.011-17.224-29.963-2.751-4.721-5.511-9.436-8.308-14.13-.961-1.613-1.925-3.224-2.906-4.824-.574-.936-1.111-1.909-2.029-2.556-1.933-1.362-4.325-.905-6.141.437-1.716,1.268-2.124,3.314-1.49,5.204.055.219.131.441.262.666,3.756,6.508,8.059,12.743,12.142,19.046,5.775,8.914,11.573,17.814,17.436,26.67,1.634,2.469,3.236,4.972,4.959,7.38,1.077,1.505,2.897,2.468,4.691,1.431,1.887-1.091,1.976-3.205,1.06-4.951Z"></path><path class="i" d="m82.374,230.529c3.341-.5,6.858-.725,10.159.135,3.195.833,5.58,2.753,8.09,4.789,2.326,1.887,4.849,3.884,6.422,6.476,1.053,1.735,1.612,4.459-.563,5.791-2.63,1.61-.222,5.764,2.423,4.145,2.522-1.544,4.048-4.716,3.873-7.661-.183-3.075-2.081-5.769-4.112-7.951-1.994-2.142-4.332-3.911-6.587-5.763-2.733-2.244-5.72-3.958-9.219-4.673-3.915-.8-7.841-.502-11.761.084-1.283.192-1.99,1.81-1.676,2.952.377,1.374,1.665,1.869,2.952,1.676h0Z"></path><path class="i" d="m75.697,264.046c2.045,2.3,4.335,4.402,6.911,6.098,1.051.692,2.7.243,3.284-.861.635-1.202.261-2.545-.861-3.284-.539-.355-1.064-.731-1.576-1.124l.486.375c-1.765-1.367-3.367-2.931-4.849-4.598-.837-.941-2.552-.917-3.394,0-.922,1.004-.892,2.39,0,3.394h0Z"></path><path class="i" d="m80.581,256.718c4.248,4.605,8.818,8.795,13.812,12.58,1.005.761,2.728.192,3.284-.861.668-1.265.211-2.471-.861-3.284-.158-.119-.315-.239-.472-.359-.101-.077-.424-.327-.164-.125-.304-.236-.606-.473-.907-.712-.559-.445-1.114-.896-1.663-1.353-1.104-.92-2.185-1.866-3.242-2.839-2.227-2.049-4.34-4.217-6.392-6.441-.853-.925-2.541-.929-3.394,0-.909.99-.91,2.407,0,3.394h0Z"></path><path class="i" d="m87.071,249.841c4.449,5.319,9.176,10.28,14.353,14.895.937.835,2.483.993,3.394,0,.838-.913,1.001-2.502,0-3.394-5.177-4.615-9.903-9.576-14.353-14.895-.809-.967-2.57-.897-3.394,0-.944,1.028-.863,2.363,0,3.394h0Z"></path><path class="i" d="m81.098,225.9c-5.205.81-10.806,2.188-14.909,5.674-1.9,1.614-3.441,3.823-4.835,5.868-1.555,2.282-2.933,4.755-3.769,7.397-.826,2.609-.729,4.882.911,7.129,1.563,2.142,3.394,3.973,4.565,6.387,1.385,2.852,2.29,5.899,4.096,8.542,1.631,2.386,3.694,4.26,6.064,5.894,1.359.937,2.869,2.089,4.495,2.49,1.547.382,3.138.18,4.579-.469,2.778-1.25,4.735-4.319,3.839-7.38l-4.011,2.335c3.056,2.418,6.653,4.351,10.651,3.033,2.34-.771,6.221-3.248,5.145-6.213l-3.526,2.71c3.203,2.057,7.645,2.872,10.738.129,1.266-1.123,2.118-2.68,1.879-4.399-.262-1.882-1.646-3.294-3.077-4.421l-2.335,4.011c2.785.754,6.158.703,8.234-1.609,1.565-1.744,2.018-4.322.803-6.387-1.094-1.859-2.724-3.515-4.123-5.146-1.306-1.523-2.652-3.012-3.868-4.609-2.018-2.651-3.638-5.56-5.314-8.432-1.556-2.667-5.706-.254-4.145,2.423,1.648,2.825,3.244,5.683,5.214,8.301,1.49,1.98,3.107,3.832,4.718,5.712.839.978,1.674,1.959,2.481,2.964.055.069.634.821.322.403.126.168.255.336.372.511.088.131.172.264.257.397.09.172.07.115-.059-.169.038.11.068.222.09.335-.034-.318-.046-.385-.037-.199.005.09.004.18-.002.27.29-.543-.044.102-.109.271.259-.676-.275.326-.057.042.235-.307-.564.479-.093.12-.093.071-.787.396-.494.291.01-.004-.66.182-.432.143-.838.143-1.679-.043-2.483-.26-2.148-.581-4.306,2.458-2.335,4.011.486.383.996.769,1.399,1.242.128.151.449.582.391.574-.165-.022.014-.389-.008-.463.058.199-.173.233.001.04-.21.232-.358.476-.632.654-1.529.99-3.551-.046-4.873-.895-1.689-1.085-4.242.736-3.526,2.71l-.011-.319c.253-.704.294-.909.121-.613.005.004.033-.012-.059.04-.296.167-.312.297-.67.529-.363.236-.742.433-1.122.639-.233.127-.206.083.021.006-.161.055-.316.102-.483.143-2.108.523-3.979-.655-5.571-1.915-1.743-1.379-4.747-.178-4.011,2.335.097.333.131.243.01.57.115-.309-.333.559-.207.391-.408.54-1.114.943-1.708,1.01-.892.101-1.58-.491-2.326-.963-.994-.629-1.992-1.27-2.909-2.009-1.894-1.526-3.303-3.367-4.412-5.525-1.143-2.225-1.889-4.631-3.05-6.846-1.129-2.154-2.807-3.858-4.257-5.781-.233-.309-.453-.636-.644-.974-.142-.251-.183-.187-.234-.593.048.38.078-.45.105-.585.108-.548.268-1.089.448-1.618.719-2.117,1.925-4.084,3.178-5.923,1.067-1.567,2.233-3.152,3.607-4.467,3.36-3.218,8.849-4.182,13.268-4.869,1.282-.199,1.992-1.805,1.676-2.952-.376-1.368-1.667-1.876-2.952-1.676h0Z"></path><path class="i" d="m177.478,247.28c-2.466,1.934-4.864,3.948-7.234,5.997-2.048,1.771-4.166,3.487-6.086,5.398-1.975,1.965-3.769,4.352-3.65,7.283s1.653,5.402,4.457,6.421c2.925,1.064,6.435.211,9.052-1.278,2.684-1.528.269-5.676-2.423-4.145-.891.507-2.096.937-3.016,1.036-.606.065-1.225.053-1.572-.02-.519-.108-.909-.304-1.049-.397-.101-.089-.196-.186-.283-.289.157.199.155.179-.005-.06-.19-.455,0,.131-.158-.323-.217-.628-.26-.833-.197-1.508.075-.804.846-1.84,1.394-2.447,1.955-2.162,4.283-3.985,6.482-5.89,2.517-2.181,5.061-4.33,7.683-6.385,1.021-.801.839-2.555,0-3.394-1.008-1.008-2.371-.803-3.394,0h0Z"></path><path class="i" d="m162.962,259.725c-.575.12.479.039-.131.026-.111-.002-.709-.063-.172.04-.057-.011-.603-.113-.323-.068.072.012-.076-.046-.107-.074-.035-.032-.342-.403-.246-.269-.048-.067-.379-.843-.244-.421-.031-.097-.143-.73-.096-.281-.022-.205-.016-.412-.009-.617.014-.167.008-.168-.019-.002l.049-.261c.055-.268.127-.537.22-.794.142-.392.392-.853.692-1.28.513-.73,1.213-1.328,1.821-1.98,3.329-3.572,7.092-6.551,10.965-9.507,1.029-.785,1.572-2.067.861-3.284-.592-1.013-2.247-1.652-3.284-.861-4.8,3.663-9.617,7.344-13.556,11.96-1.9,2.227-3.261,5.482-2.195,8.396,1.121,3.064,3.901,4.563,7.049,3.906,1.269-.265,2.004-1.759,1.676-2.952-.362-1.317-1.679-1.942-2.952-1.676h0Z"></path><path class="i" d="m185.52,252.701c-3.193,2.542-6.429,5.032-9.517,7.702-2.818,2.436-6.257,5.534-5.274,9.67,1.076,4.528,6.214,5.299,9.956,3.806,3.446-1.375,6.242-4.129,9.24-6.244,2.838-2.002,5.754-3.912,8.472-6.079,1.014-.809.844-2.55,0-3.394-1.002-1.002-2.377-.811-3.394,0-.073.058-.335.26.023-.013-.09.068-.179.137-.269.204-.234.175-.469.35-.704.522-.548.401-1.1.796-1.653,1.188-1.161.823-2.329,1.636-3.497,2.449-2.386,1.662-4.644,3.496-7.033,5.152-1.26.873-2.426,1.68-3.75,2.009-.929.231-2.192.349-2.647-.522-.127-.243-.155-.608-.087-.912.108-.485.45-.907.749-1.266,1.062-1.277,2.332-2.382,3.591-3.458,2.995-2.559,6.109-4.968,9.19-7.421,1.015-.808.844-2.551,0-3.394-1.003-1.003-2.377-.81-3.394,0h0Z"></path><path class="i" d="m165.707,244.929c-.957-.025-1.198-1.141-1.067-1.867.184-1.017,1.292-1.925,2.265-2.658,2.721-2.05,5.961-3.801,9.17-4.94,3.08-1.093,6.303-1.569,9.558-1.71s6.804-.004,9.869,1.225c2.459.986,4.75,2.502,6.37,4.06,1.831,1.761,3.38,3.564,4.276,5.961,1.11,2.971,1.371,5.92.653,9.016-.584,2.52-1.905,4.509-3.694,6.346-1.216,1.249-2.498,2.437-3.799,3.596-1.168,1.04-2.341,2.162-3.713,2.931-1.116.625-2.554,1.036-3.705.495.082.039.213.043.259.143.04.087-.188-.568-.208-.749.035.311.026-.578.021-.504-.029.373.265-.755.001-.192.55-1.173.328-2.588-.861-3.284-1.041-.609-2.731-.318-3.284.861-1.546,3.294-.339,7.705,3.499,8.552,4.287.946,7.767-1.687,10.804-4.345,2.764-2.419,5.738-4.989,7.597-8.204,1.882-3.255,2.66-7.476,2.211-11.194-.478-3.963-2.015-7.627-4.61-10.648-2.267-2.64-4.943-4.726-8.028-6.342-3.934-2.061-8.427-2.651-12.827-2.553-4.257.094-8.606.683-12.585,2.254-2.421.956-4.748,2.145-6.978,3.487-2.014,1.212-4.094,2.587-5.557,4.456-1.353,1.727-1.926,4.089-1.32,6.235.69,2.441,3.178,4.303,5.683,4.37,3.09.082,3.088-4.718,0-4.8h0Z"></path><path class="i" d="m103.39,237.043h68.57c3.089,0,3.094-4.8,0-4.8h-68.57c-3.089,0-3.094,4.8,0,4.8h0Z"></path><path class="i" d="m229.496,17.894c-1.392,7.896-2.785,15.792-4.177,23.688-2.419,13.717-4.837,27.435-7.256,41.152l-2.31,13.103c-.131.743-.276,1.484-.393,2.229-.387,2.452,1.215,3.63,3.261,3.99,11.121,1.961,22.243,3.922,33.364,5.883,9.928,1.751,19.843,3.63,29.792,5.253,4.169.68,4.165-3.524,4.661-6.34l2.638-14.961c2.435-13.809,4.87-27.617,7.304-41.426l2.678-15.187.677-3.839c.333-1.89.034-3.918-2.212-4.482-3.099-.778-6.377-1.124-9.521-1.679-6.456-1.138-12.913-2.277-19.369-3.415-11.353-2.002-22.706-4.004-34.059-6.005-.371-.065-.742-.135-1.113-.196-1.879-.308-3.255.419-3.966,2.231-.473,1.207.52,2.635,1.676,2.952,1.361.374,2.477-.465,2.952-1.676l.105-.267-.617,1.059-.041.064-1.211.328c-.641.016-.183-.059.11-.011.427.069.852.15,1.278.225l4.73.834c5.13.905,10.261,1.809,15.391,2.714,11.563,2.039,23.126,4.078,34.689,6.117l5.656.997c.774.137,1.635.187,2.371.476l-1.059-.617-.064-.041-.328-1.211c-.017-.685.046-.087-.006.209l-.283,1.606-1.039,5.893c-1.129,6.402-2.258,12.804-3.386,19.206-2.538,14.392-5.076,28.785-7.613,43.177-.419,2.378-.839,4.755-1.258,7.133-.165.937-.217,1.998-.567,2.889l.617-1.059.041-.064,1.211-.328c.641-.016.183.059-.11.011-.427-.069-.852-.15-1.278-.225l-4.73-.834c-5.13-.905-10.261-1.809-15.391-2.714l-34.689-6.117-5.656-.997c-.774-.137-1.635-.187-2.371-.476l1.059.617.064.041.328,1.211c.017.686-.046.085.006-.209l.283-1.606,1.039-5.893c1.122-6.363,2.244-12.726,3.366-19.088l7.619-43.211c.578-3.28,1.157-6.559,1.735-9.839.225-1.275-.344-2.586-1.676-2.952-1.159-.318-2.726.393-2.952,1.676Z"></path><path class="i" d="m275.053,43.498c-3.633-3.743-7.21-7.537-10.563-11.535-.677-.808-2.046-.874-2.908-.375-4.518,2.611-9.177,4.952-13.871,7.227-1.166.565-1.479,2.227-.861,3.284.697,1.191,2.113,1.428,3.284.861,4.094-1.985,8.157-4.031,12.127-6.251,3.014,3.503,6.18,6.867,9.398,10.184,2.155,2.221,5.547-1.175,3.394-3.394Z"></path><path class="i" d="m265.032,47.691c.65.115,1.261.102,1.849-.242.498-.291.973-.862,1.103-1.434.266-1.169-.354-2.719-1.676-2.952-3.27-.577-6.541-1.153-9.811-1.73-.65-.115-1.261-.102-1.849.242-.498.291-.973.862-1.103,1.434-.266,1.169.354,2.719,1.676,2.952,3.27.577,6.541,1.153,9.811,1.73Z"></path><path class="i" d="m251.229,50.907c-.218,1.236-.436,2.472-.654,3.707-.096.543-.227,1.108-.225,1.657.007,1.578,1.078,2.998,2.521,3.556.15.073.31.129.485.16,1.741.307,3.482.614,5.223.921.867.153,1.733.306,2.6.458,1.076.19,2.179.496,3.263.194,1.341-.373,2.434-1.513,2.741-2.87.064-.282.101-.573.151-.857.199-1.131.399-2.262.598-3.393.079-.447.172-.899.206-1.351.107-1.416-.716-2.853-1.932-3.559-.812-.471-1.79-.546-2.697-.706-.884-.156-1.768-.312-2.652-.468-.942-.166-1.885-.332-2.827-.498-.913-.161-1.9-.44-2.827-.461-2.113-.049-3.628,1.543-3.975,3.509Zm4.556,1.685c.016-.089.03-.178.047-.267.278.049.555.098.833.147l2.436.43c1.374.242,2.747.484,4.121.727-.144.817-.288,1.633-.432,2.45-.041.233-.082.465-.123.698-.181-.032-.362-.064-.543-.096-.852-.15-1.704-.3-2.556-.451-1.43-.252-2.861-.504-4.291-.757.169-.96.339-1.921.508-2.881Z"></path><path class="i" d="m270.261,82.382c-.611-.411-1.217-.83-1.814-1.262-.286-.207-.569-.416-.851-.628-.089-.067-.177-.135-.266-.202-.077-.061-.182-.144-.21-.166-.679-.539-1.335-1.107-1.979-1.688,1.375-.937,2.715-1.933,4.011-3.005.148-.048.294-.111.438-.196.498-.291.973-.862,1.103-1.434.266-1.169-.354-2.719-1.676-2.952-1.881-.332-3.763-.664-5.644-.995.063-.228.107-.457.107-.654,0-.589-.261-1.292-.703-1.697-.457-.42-1.058-.732-1.697-.703-.674.03-1.174.283-1.697.703-.326.262-.654.523-.984.781-.015.011-.041.032-.07.055-.013.01-.03.023-.038.029-.161.123-.323.245-.485.366-.665.495-1.343.972-2.039,1.422-1.235.798-2.536,1.48-3.867,2.102-.229-.175-.493-.305-.8-.359-.556-.098-1.113-.196-1.669-.294.241-1.366.482-2.733.723-4.099.225-1.275-.344-2.586-1.676-2.952-1.159-.318-2.726.393-2.952,1.676-.267,1.515-.534,3.03-.801,4.545-1.114-.196-2.229-.393-3.343-.589-.65-.115-1.261-.102-1.849.242-.498.291-.973.862-1.103,1.434-.266,1.169.354,2.719,1.676,2.952.452.08.904.159,1.357.239-1.251,1.092-2.503,2.185-3.754,3.277-.445.388-.703,1.124-.703,1.697,0,.589.261,1.292.703,1.697.457.42,1.058.732,1.697.703.661-.03,1.197-.267,1.697-.703.667-.582,1.333-1.164,2-1.746-.652,3.699-1.305,7.398-1.957,11.097-.225,1.275.344,2.586,1.676,2.952,1.159.318,2.726-.393,2.952-1.676l1.985-11.259c.03.054.06.108.089.162.287.52.867.947,1.434,1.103.574.158,1.339.087,1.849-.242.026-.016.048-.038.073-.055-.008.446.088.885.313,1.234.721,1.119,1.905,1.374,3.067.941-.626.486-1.093,1.18-1.271,1.955-.054.236-.085.481-.127.72-.18,1.018-.359,2.037-.539,3.055-.075.426-.172.866-.202,1.297-.103,1.473.813,2.861,2.151,3.42.155.078.321.139.503.172,1.399.247,2.798.493,4.196.74.665.117,1.33.234,1.995.352,1.14.201,2.226.353,3.278-.273.818-.487,1.443-1.338,1.625-2.275.061-.315.112-.633.167-.949.163-.926.327-1.853.49-2.779.037-.207.077-.414.11-.622.241-1.512-.225-3.031-1.613-3.848-.693-.408-1.493-.479-2.267-.616-.707-.125-1.414-.249-2.121-.374-.737-.13-1.473-.26-2.21-.39-.9-.159-1.825-.402-2.737-.227,1.672-.784,3.308-1.62,4.903-2.524,2.123,2.036,4.487,3.821,6.924,5.461,1.044.703,2.704.235,3.284-.861.64-1.211.253-2.534-.861-3.284Zm-12.515,6.193l.014-.08c.498.088.996.176,1.494.263.935.165,1.87.33,2.806.495-.124.634-.252,1.27-.359,1.906-.446-.079-.893-.157-1.339-.236-.979-.173-1.959-.345-2.938-.518.108-.61.215-1.22.323-1.83Zm-5.367-8.569c-.029.013-.052.036-.08.051.002-.424-.09-.838-.306-1.23-.398-.722-.797-1.445-1.195-2.167.237.187.505.331.804.399.67.153,1.225.03,1.849-.242.92-.401,1.818-.847,2.698-1.324.474.66.964,1.309,1.473,1.943-1.714.922-3.467,1.772-5.243,2.57Zm9.394-5.029c-.016-.019-.034-.037-.05-.057-.165-.196-.328-.394-.489-.593.395.07.791.139,1.186.209-.216.147-.429.298-.647.441Z"></path><path class="i" d="m304.303,19.187c.29-1.122.61-2.241,1-3.333.1-.319.114-.638.043-.957-.014-.319-.109-.617-.285-.892-.151-.28-.357-.504-.618-.673-.232-.212-.504-.355-.816-.43-.614-.14-1.304-.11-1.849.242l-.486.375c-.297.299-.503.652-.617,1.059-.39,1.092-.71,2.211-1,3.333-.157.609-.078,1.303.242,1.849.151.28.357.504.618.673.232.212.504.355.816.43.614.14,1.304.11,1.849-.242.521-.336.944-.82,1.103-1.434h0Z"></path><path class="i" d="m309.189,28.26l2.771-.396c.312-.074.584-.217.816-.43.261-.169.467-.394.618-.673.175-.275.27-.573.285-.892.071-.319.057-.638-.043-.957-.188-.581-.548-1.141-1.103-1.434l-.573-.242c-.425-.114-.851-.114-1.276,0l-2.771.396c-.312.074-.584.217-.816.43-.261.169-.467.394-.618.673-.175.275-.27.573-.285.892-.071.319-.057.638.043.957.188.581.548,1.141,1.103,1.434l.573.242c.425.114.851.114,1.276,0h0Z"></path><path class="i" d="m27.557,267.523c-1.413,2.743-2.792,5.503-4.157,8.27-.698,1.413-1.565,2.846-1.852,4.412-.261,1.423-.196,2.924.321,4.285.99,2.607,3.204,4.734,6,5.261,2.555.482,5.281.12,7.643-.928,2.793-1.239,4.755-3.578,5.974-6.32,1.351-3.042,2.697-6.085,4.035-9.133.677-1.542,1.338-3.004.773-4.711-.513-1.551-1.769-2.801-3.359-3.227-1.202-.322-2.605-.17-3.834-.17h-5.889c-2.189,0-4.397.128-5.654,2.26-1.572,2.667,2.575,5.085,4.145,2.423.323-.548-.055.118-.086.079l-.102.06c-.173-.02-.086-.027.262-.021.059.003.12,0,.18,0,.418-.005.837,0,1.255,0h4.394c1.193,0,2.385,0,3.578,0,.133,0,.267-.005.399,0,.278.011-.46-.209.197.03-.439-.159.363.257-.05.008-.194-.117-.086.03.038.084l-.062-.138c.071.284.077.307.019.069.019-.304-.065.178-.109.288-1.009,2.569-2.234,5.076-3.352,7.599-.911,2.056-1.751,4.37-3.357,5.628-1.569,1.23-3.149,1.509-5.027,1.5-1.569-.008-2.583-.525-3.318-1.837-.026-.047-.203-.411-.062-.081-.127-.297-.199-.612-.276-.925-.153-.62-.058.314-.032-.33.004-.096.071-.972.008-.604.216-1.255.963-2.364,1.599-3.649,1.284-2.596,2.58-5.187,3.906-7.762.593-1.152.299-2.605-.861-3.284-1.075-.629-2.688-.296-3.284.861Z"></path><path class="i" d="m25.983,281.733c4.599,0,9.198,0,13.797,0,1.255,0,2.458-1.104,2.4-2.4s-1.055-2.4-2.4-2.4c-4.599,0-9.198,0-13.797,0-1.255,0-2.458,1.104-2.4,2.4s1.055,2.4,2.4,2.4h0Z"></path></g></g></svg>