<svg id="b" xmlns="http://www.w3.org/2000/svg" width="385.841" height="416.549" viewBox="0 0 385.841 416.549"><defs><style>.i{fill:#211715;}.j{fill:#fff;}.k{fill:#fcdc4a;}</style></defs><g id="c"><g id="d"><path class="j" d="M364.395,81.477c-.706,1.509-1.133,3.66-1.267,5.257-.191,2.28.808,5.468,1.636,7.204,1.088,2.282,3.926,5.196,6.259,6.53,1.866,1.066,6.551,2.91,9.685,2.308,3.336-3.594,3.482-9.314,2.704-14.141-.705-4.376-5.226-9.185-9.045-11.433-1.362,2.432-2.335,4.589-3.624,6.81-1.142-.481-4.053-1.617-6.347-2.534Z"></path><path class="j" d="M23.3,43.859c1.263-.818,3.107-1.899,4.547-2.395,2.056-.708,5.226-.532,7.019-.175,2.357.47,4.512,1.772,6.368,3.299,1.577,1.298,3.813,4.261,3.989,7.288-2.532,3.913-6.908,7.357-11.537,7.767-4.196.372-9.034-2.606-11.997-5.6,1.923-1.823,3.683-3.222,5.428-4.929-.71-.94-2.436-3.356-3.817-5.255Z"></path><path class="j" d="M76.649,315.991c3.098-24.459,8.552-48.526,12.927-72.772,1.271-7.044,2.242-13.828,2.613-20.974,0,0,.168-3.238.426-8.21-3.651,5.211-8.273,9.135-11.462,9.598-4.385.637-9.234-1.598-10.993-5.666-.905-2.093-.968-4.451-.811-6.726.72-10.433,4.281-18.902,9.376-28.035,1.619-2.902,3.82-6.285,6.185-9.303,4.579-5.314,10.673-9.342,17.443-12.341,5.559,2.84,14.05,5.702,22.061,5.722.135,0,.272,0,.408-.002,7.275-.082,16.602-2.833,21.715-5.583,2.383,1.07,4.683,2.271,6.86,3.612,3.174,1.955,6.086,4.208,8.621,6.795,0,0,1.427,1.501,3.393,3.505.386.476,1.292,1.462,1.601,1.915,5.625,8.222,10.035,15.922,10.754,25.706.157,2.134-.54,6.654-1.444,8.617-1.755,3.815-6.596,5.911-10.974,5.313-2.372-.324-5.444-2.188-8.174-4.741.161,4.808.263,7.878.263,7.878.256,7.697,1.162,15.381,2.718,22.92,5.829,28.225,10.273,46.077,13.212,75.076l.045.44c-.154.169-.308.339-.308.339-1.414,1.556-11.836,3.005-20.987,3.455-9.296.45-19.62.471-25.846.471-5.424,0-18.169-.317-27.647-1.024-9.736-.71-19.554-1.386-22.34-3.027l.079-.654c.092-.768.187-1.537.285-2.304Z"></path><path class="j" d="M116.232,322.824c-5.604-.162-12.148-.44-17.607-.847-.757-.055-1.514-.11-2.269-.165l.151,2.672c.873,10.85,3.206,38.081,3.124,52.343-.006,1.101-.022,2.229-.409,3.259-.341.906-.861,1.652-1.475,2.344,2.443,2.509,6.214,3.194,9.631,2.494,3.414-.699,6.465-2.54,9.436-4.366-.144-2.326.048-4.709.248-7.037.421-4.905.843-9.809,1.264-14.714.646-7.522,2.123-25.892,2.769-33.414,0,0,.084-.981.218-2.448-1.549-.029-3.266-.069-5.081-.122Z"></path><path class="j" d="M153.425,324.338c.051-.372.152-1.109.26-1.895-.525.032-1.048.061-1.567.086-8.236.399-17.279.461-23.563.469.132,1.21.242,2.278.242,2.278.578,7.528,1.888,25.91,2.466,33.437.377,4.908.754,9.816,1.131,14.725.174,2.261.34,4.575.198,6.836.095.038.198.09.304.155,3.038,1.868,6.151,3.779,9.644,4.494,3.263.668,6.849.074,9.295-2.168-.698-.765-1.292-1.579-1.662-2.591-.379-1.034-.384-2.162-.38-3.263.048-14.262,2.588-43.013,3.598-52.312,0,0,.013-.092.034-.251Z"></path><path class="j" d="M151.745,119.488c.859-.775,2.132-1.15,3.322-.972s2.274.896,2.818,1.874c.385.686.509,1.467.58,2.23.261,3.004-.332,6.066-1.693,8.804-.663,1.334-1.528,2.611-2.73,3.583-.968.772-2.718.715-3.931.931-.232.773-.47,1.412-.595,1.776-.943,2.439-6.214,11.08-12.848,14.262.09.923.22,1.976.451,3.221.34,1.98,1.2,3.9,3.05,4.76.89.411,3.176,1.219,5.61,2.064-5.317,2.689-14.456,5.283-21.51,5.264-7.572-.019-15.572-2.576-21.126-5.251,2.222-.95,4.784-2.057,4.895-2.097,1.77-.67,2.62-2.61,2.99-4.74.221-1.275.381-2.116.481-3.091-2.945-1.487-5.669-3.735-8.08-6.486-2.729-3.113-4.315-6.562-5.27-9.641-1.916.779-3.406-.156-4.429-.971-1.202-.972-2.066-2.249-2.73-3.583-1.362-2.738-1.954-5.799-1.693-8.804.071-.762.195-1.544.58-2.23.545-.978,1.628-1.696,2.818-1.874s2.463.197,3.322.972c0,0,2.548-17.761,28.104-17.761s27.612,17.761,27.612,17.761Z"></path><path class="j" d="M108.838,176.736c-.657-.362-1.268-.798-1.842-1.286.124-3.533.201-7.64.117-11.761,5.09,1.987,11.328,3.581,17.3,3.596.135,0,.272,0,.408-.002,5.736-.065,12.747-1.788,17.963-3.862-.181,4.513-.191,8.098-.036,11.908-.846.741-1.774,1.37-2.813,1.812-2.746,1.169-5.962.859-8.705-.315-2.423-1.037-4.525-2.691-6.427-4.526-1.903,1.835-4.005,3.489-6.429,4.526-2.744,1.174-5.96,1.485-8.705.315-.285-.121-.562-.257-.831-.405Z"></path><path class="j" d="M97.92,206.197c-1.954,2.115-4.397,2.586-7.234,2.097-2.007-.346-2.907-1.481-4.048-3.168-.857-1.266-1.363-2.45-1.538-3.969-.225-1.96.55-4.056,1.333-5.867,1.67-3.864,2.526-6.541,5.42-9.597,2.634-2.781,6.54-3.478,10.381-3.302.527.045,1.609.131,1.609.131,1.865.148,3.318.721,4.031,2.188s.321,3.045-.837,4.195c1.762.087,2.917.981,3.037,2.559.12,1.578-.646,3.284-2.067,3.627.988.398,1.554,1.897,1.372,2.903s-1.048,2.672-2.266,2.816c1.217.43,1.21,2.414.358,3.624-.852,1.21-2.493,1.443-3.971,1.494s-4.118-.152-5.178.223"></path><path class="j" d="M151.276,204.116c1.818,2.227,4.224,2.845,7.081,2.53,2.021-.223,2.987-1.299,4.227-2.911.931-1.209,1.507-2.358,1.774-3.861.344-1.94-.301-4.075-.971-5.927-1.429-3.951-2.118-6.671-4.816-9.892-2.455-2.931-6.305-3.864-10.142-3.922-.527.013-1.611.032-1.611.032-1.868.034-3.35.517-4.15,1.935-.8,1.419-.505,3.015.579,4.231-1.761-.02-2.967.8-3.182,2.365-.215,1.565.443,3.312,1.839,3.74-1.009.336-1.664,1.796-1.544,2.809s.881,2.726,2.086,2.944c-1.239.354-1.353,2.332-.577,3.589s2.396,1.59,3.866,1.73,4.112.099,5.146.537"></path><path class="j" d="M312.954,109.933c.89-.804,2.211-1.192,3.445-1.008s2.358.929,2.923,1.943c.399.711.528,1.522.602,2.312.27,3.116-.344,6.291-1.756,9.13-.688,1.383-1.584,2.707-2.831,3.715-.957.764-1.919,1.197-3.309.774l-.497-.151c-.305,1.202-.707,2.247-.887,2.759-.986,2.498-6.536,11.401-13.497,14.566.07.548.16,1.177.309,2.003.36,2.12.96,4.52,3.78,6.08.19.06,3.87,1.81,4.16,1.93,0,0-9.002,13.696-19.669,13.696s-21.231-13.696-21.231-13.696c.3-.12,3.97-1.87,4.17-1.93,2.81-1.56,3.41-3.96,3.78-6.08.089-.506.159-.933.206-1.305-3.599-1.467-6.915-4.012-9.8-7.235-3.12-3.485-5.013-7.215-6.141-10.428l-.73.197c-1.572.423-2.773-.415-3.73-1.179-1.247-1.008-2.143-2.332-2.831-3.715-1.412-2.839-2.026-6.014-1.756-9.13.074-.79.203-1.601.602-2.312.565-1.014,1.689-1.759,2.923-1.943s2.554.204,3.445,1.008c0,0,2.168-23.687,28.39-23.687s29.932,23.687,29.932,23.687Z"></path><path class="j" d="M318.83,159.03c-3.377-1.972-7.099-3.53-11.124-4.789-1.924-1.766-4.376-3.6-6.61-4.871-1.627,9.317-12.54,40.402-14.621,45.566-3.292-8.619-14.645-37.327-16.544-45.498-1.908,1.079-5.327,3.43-7.81,5.593-6.936,2.979-13.095,6.685-17.639,11.418-3.215,3.733-6.315,8.374-8.467,12.231-5.518,9.892-9.375,19.063-10.154,30.363-.17,2.464-.101,5.018.879,7.285,1.904,4.406,7.156,6.826,11.905,6.136,3.125-.454,7.319-3.74,10.92-8.423-.289,4.511-.579,9.047-.579,9.047-.271,4.779-.662,9.551-1.013,14.325-.216,2.931-.426,5.863-.618,8.796-.097,1.478-.19,2.956-.276,4.435-.064,1.106-.503,2.853-.108,3.916.049.078.107.15.176.215.314.297.777.366,1.209.39,1.444.079,22.316.229,26.519-.622.936-.189,1.886-.416,2.695-.923,1.173-.735,1.922-1.975,2.57-3.198,2.217-4.183,3.774-8.717,4.585-13.382.803,4.664,2.359,9.198,4.577,13.382.648,1.223,1.397,2.463,2.57,3.198.809.507,1.759.733,2.695.923,4.203.851,25.211.701,26.655.622.432-.024.895-.093,1.22-.4,1.053,1.005.377-2.558.353-3.302-.069-2.173-.141-4.346-.212-6.519-.132-3.996-.264-7.992-.377-11.988-.118-4.165-.214-8.33-.255-12.497l-.021-10.755c3.113,3.092,6.794,5.372,9.616,5.757,4.749.648,10.001-1.626,11.905-5.765.98-2.13,1.736-7.034,1.566-9.348-.78-10.616-5.564-18.969-11.667-27.889-2.721-3.977-8.465-8.973-12.404-12.108-.689-.46-1.394-.899-2.114-1.32"></path><path class="j" d="M313.721,382.283c-.075-.487-.117-.968-.15-1.298-.172-1.767-.346-3.518-.473-5.243-4.656.074-11.923.077-17.289.045.128,2.058.17,4.056.369,6.511,2.884,1.771,5.849,3.519,9.156,4.196,3.268.669,6.861.072,9.307-2.184-.191-.176-.343-.334-.435-.46-.245-.337-.392-.956-.486-1.567Z"></path><path class="j" d="M275.273,375.792c-5.312.026-12.076.019-16.427-.054-.131,1.725-.304,3.478-.477,5.246-.073.744-.196,2.26-.636,2.865-.083.114-.215.253-.38.409,2.447,2.297,6.071,2.909,9.364,2.235,3.262-.668,6.193-2.379,9.039-4.124.204-2.487.247-4.504.378-6.581-.282.002-.57.003-.861.005Z"></path><path class="j" d="M285.199,157.875l-.628-.005c-.052-.179-.242-.271-.415-.346-1.314-.597-9.579-5.194-10.874-6.065,0,0-1.71-1.151-3.42-2.303l.124.511c2.051,8.463,13.228,36.73,16.49,45.27,2.081-5.164,12.995-36.249,14.621-45.566,0,0,.02-.114.04-.227l-2.632,1.871c-1.475,1.049-9.883,5.839-11.402,6.528-.167.081-.352.173-.409.346l-1.493-.013Z"></path><path class="j" d="M256.439,203.485c-2.101,2.274-4.727,2.78-7.777,2.254-2.158-.372-3.125-1.593-4.352-3.406-.921-1.361-1.465-2.634-1.653-4.267-.242-2.108.592-4.36,1.433-6.308,1.795-4.154,2.715-7.032,5.827-10.317,2.831-2.989,7.031-3.739,11.16-3.55.566.048,1.73.14,1.73.14,2.005.159,3.567.775,4.334,2.353s.345,3.274-.9,4.51c1.894.094,3.136,1.054,3.265,2.751.129,1.697-.694,3.531-2.222,3.899,1.063.427,1.67,2.039,1.475,3.12s-1.126,2.873-2.436,3.028c1.308.462,1.301,2.595.385,3.896-.916,1.3-2.68,1.552-4.27,1.606s-4.427-.164-5.567.24"></path><path class="j" d="M321.927,209.703c.01,5.115.021,10.755.021,10.755.037,3.729.121,7.458.223,11.187,3.879-1.589,6.647-5.619,6.655-10.393.003-1.921-.017-4.174-.056-6.654-2.237-1-4.676-2.741-6.843-4.895Z"></path><path class="j" d="M315.144,201.228c1.958,2.398,4.549,3.063,7.626,2.724,2.177-.24,3.216-1.399,4.552-3.134,1.002-1.303,1.623-2.54,1.91-4.158.37-2.089-.325-4.388-1.046-6.383-1.539-4.255-2.281-7.184-5.187-10.653-2.644-3.157-6.79-4.161-10.922-4.224-.568.014-1.735.035-1.735.035-2.011.036-3.607.556-4.469,2.084-.862,1.528-.544,3.246.623,4.556-1.896-.022-3.195.861-3.427,2.547-.232,1.686.477,3.567,1.98,4.027-1.087.362-1.792,1.934-1.663,3.025s.949,2.936,2.247,3.17c-1.334.381-1.457,2.511-.622,3.865.835,1.354,2.58,1.712,4.164,1.863s4.428.107,5.542.579"></path><path class="j" d="M309.165,408.966c1.034.979,2.112,1.898,3.338,2.605,4.086,2.355,8.944,3.409,13.631,2.797,2.05-.267,4.102-.85,5.793-2.039s2.987-3.047,3.161-5.107c.247-2.929-1.53-5.703-3.614-7.777-5.345-5.32-11.012-10.543-15.733-16.366-2.367,3.258-6.607,4.191-10.406,3.414-3.494-.715-6.607-2.626-9.644-4.494-2.907-1.787-3.344,6.603-3.413,8.422-.109,2.88-.581,6.685,1.704,8.815,1.642,1.53,5.161,3.318,7.307,3.975,3.507,1.072,5.316,3.331,7.876,5.755Z"></path><path class="j" d="M262.887,408.966c-1.034.979-2.112,1.898-3.338,2.605-4.086,2.355-8.944,3.409-13.631,2.797-2.05-.267-4.102-.85-5.793-2.039s-2.987-3.047-3.161-5.107c-.247-2.929,1.53-5.703,3.614-7.777,5.345-5.32,11.012-10.543,15.733-16.366,2.367,3.258,6.607,4.191,10.406,3.414,3.494-.715,6.607-2.626,9.644-4.494,2.907-1.787,3.344,6.603,3.413,8.422.109,2.88.581,6.685-1.704,8.815-1.642,1.53-5.161,3.318-7.307,3.975-3.507,1.072-5.316,3.331-7.876,5.755Z"></path><path class="j" d="M251.358,97.826c1.107-11.383,7.552-18.535,13.277-22.641,5.195-3.726,11.685-5.949,19.329-5.949,3.872,0,7.744.578,11.41,1.871,1.658.585,3.268,1.31,4.813,2.158,2.12,1.163,4.459,2.74,5.511,3.655.66.573,1.628,1.515,2.266,2.159,1.583,1.6,2.996,3.376,4.188,5.298,2.845,4.586,4.315,9.905,4.552,15.312.153,3.502-.129,6.483-.595,9.208-.89-.074-1.804.145-2.55.598l-1.239.728c-.705.414-1.886.754-2.674.535-.52-.144-.933-.558-1.195-1.03-.296-.533-.427-1.141-.573-1.73-.661-4.477-2.603-8.834-5.636-12.659-.461-1.337-1.184-2.648-2.324-3.497-.921-.686-2.15-1.02-3.251-.749-1.932.945-3.951,1.773-6.033,2.488-1.516.52-3.522.906-4.63-.059-1.049-.914-.622-2.571-1.87-3.315-.845-.503-2.043-.322-3.053-.069-10.678,2.671-17.11,9.159-21.073,17.393,0,0-1.064,2.181-2.466,2.505-.963.222-2.909-.105-2.909-.105-.693-.625-1.645-.999-2.616-1.04.197,1.917-.97-5.079-.79-9.203.028-.633.072-1.254.131-1.863Z"></path><g id="e"><path class="k" d="M285.386,240.208c.885,3.546,2.203,6.984,3.915,10.214.648,1.223,1.397,2.463,2.57,3.198.809.507,1.759.733,2.695.923,4.085.827,24.047.709,26.488.629-.422,18.512-1.731,48.962-2.321,68.017-.601,19.419-.739,32.988-1.34,52.406-2.692.286-23.105.235-27.661.124-.348-11.954-1.675-40.918-1.837-45.649-.459-13.399-.965-31.801-1.422-45.11-.577,13.96-1.166,29.232-1.743,43.215-.204,4.938-1.904,35.068-2.337,47.544-4.556.111-24.969.162-27.661-.124-.665-19.392-1.408-33.095-2.073-52.488-.647-18.86-2.046-49.401-3.235-67.917,4.579.075,21.689.114,25.45-.647.936-.189,1.886-.416,2.695-.923,1.173-.735,1.922-1.975,2.57-3.198,1.712-3.229,3.03-6.668,3.915-10.214h1.332Z" style="fill: rgb(34, 58, 112);"></path><path class="k" d="M68.916,22.296c.299-2.276.867-5.488,1.715-7.651,1.21-3.089,4.551-6.598,6.739-8.327,2.877-2.273,6.522-3.49,10.131-4.135,3.068-.548,8.721-.215,12.413,2.575,2.041,6.812,1.714,15.302-2.388,21.086-3.718,5.242-11.964,7.918-18.373,8.399-.216-4.037-.101-7.465-.358-11.182-1.794-.105-6.309-.49-9.881-.764Z" style="fill: rgb(34, 58, 112);"></path><path class="k" d="M299.076,142.916c-.631.392-1.271.756-1.93,1.055.07.548.16,1.177.309,2.003.331,1.949.887,4.126,3.162,5.678.2-.854.365-1.628.479-2.283,2.233,1.271,4.685,3.105,6.61,4.871,4.024,1.259,7.747,2.817,11.124,4.789.721.421,1.425.86,2.114,1.32,1.855,1.477,4.109,3.367,6.26,5.368-.193-4.746-.359-8.581-.461-10.856-.062-1.388-.283-4.941-2.58-7.793-.693-.861-2.521-2.215-5.086-2.918-5.862-1.612-15.456-1.447-20.002-1.235Z" style="fill: rgb(34, 58, 112);"></path><path class="k" d="M241.356,170.405c1.01-1.376,2.06-2.717,3.126-3.955,4.545-4.733,10.703-8.439,17.639-11.418,2.483-2.163,5.902-4.514,7.81-5.593.095.41.22.885.361,1.393,1.442-1.449,1.869-3.233,2.153-4.857.089-.506.159-.933.206-1.305-.312-.127-.619-.273-.927-.416l-2.175.104c-1.62.011-13.863-.623-21.487,1.405-1.968.524-4.141,1.344-5.479,3.385-.927,1.413-1.54,3.5-1.45,6.977.048,1.839.109,7.226.223,14.279Z" style="fill: rgb(34, 58, 112);"></path><path class="k" d="M261.076,177.893c.566.048,1.73.14,1.73.14.86.068,1.631.228,2.3.504.283-5.195.848-15.967.341-25.801-1.168.348-2.536.904-3.922,1.54-3.095,1.419-6.286,3.233-7.566,4.001-.143,1.037-.125,5.875-.178,7.185-.17,4.21-.536,9.023-1.323,14.049,2.535-1.382,5.594-1.758,8.619-1.618Z" style="fill: rgb(34, 58, 112);"></path><path class="k" d="M256.87,203.435l-.431.051c-.43.466-.888.84-1.362,1.164-.518,1.995-.895,3.328-.895,3.328-1.813,4.115-4.31,7.413-6.947,9.816-.018.478-.027.739-.027.739-.037,1-.111,4-.163,6.014,3.27-.007,5.804-3.778,7.597-6.099,1.867-2.416,3.608-5.018,4.874-7.804.388-.853,1.593-3.882,2.606-7.444-1.625.023-4.18-.144-5.251.235Z" style="fill: rgb(34, 58, 112);"></path><path class="k" d="M310.341,175.434s1.167-.021,1.735-.035c2.776.042,5.546.528,7.875,1.787-.558-4.18-.849-8.17-.993-11.725-.053-1.31-.036-6.148-.178-7.185-1.42-.851-5.189-2.99-8.573-4.449-1.034-.446-2.031-.828-2.915-1.091-.5,9.676-.466,15.312.1,23.327.814-.424,1.811-.609,2.948-.629Z" style="fill: rgb(34, 58, 112);"></path><path class="k" d="M323.394,211.491c-3.253-2.434-6.312-5.697-7.804-8.996l-.114-.912c-.11-.12-.225-.226-.331-.356l-.427-.077c-.93-.394-3.06-.429-4.662-.517.17.706.346,1.444.535,2.27.989,3.402,2.654,6.632,4.588,9.587,1.742,2.661,4.123,6.299,7.166,7.512.339.135.675.276,1.01.419.149-1.907.149-5.741.094-7.352,0,0-.02-.576-.054-1.578Z" style="fill: rgb(34, 58, 112);"></path><path class="k" d="M93.589,102.356h-.01c-2.25,1.52-7.46,2.22-9.52,2.06-2.65-.2-4.81-1.22-6.62-2.36,4.4-2.1,7.9-6.93,9.05-11.7.98-4.04,1.56-8.09,4.15-11.49,2.33-3.05,5.74-5.07,9.46-5.91,3.11-.72,7.29-.33,10.19,1.03,1.76.84,4.09,1.92,5.49,4.35.09.17.84,1.32,1.25,2.24,0,0,2.882,7.67-5.118,13.003-4.312,2.875-7.464,3.3-11,5.111-4.556,2.333-7.322,3.666-7.322,3.666Z" style="fill: rgb(34, 58, 112);"></path><path class="k" d="M101.652,116.996c6.776-3.396,14.389-9.761,20.764-13.958-.8,2.037-2.457,6.426-1.359,6.244,4.17-.172,9.679-3.315,13.542-7.825,1.269,4.042,4.851,8.424,9.229,11.547.289.21.609.382.884.612,1.81,1.518,2.699,2.268,4.31,3.518.586.454,2.287,1.905,3.04,1.973.835.075,1.681-.58,2.638-.612.77-2.963.971-5.7.819-9.194-.526-12.061-6.778-19.556-12.902-23.697-5.111-3.455-10.996-5.753-18.602-5.753-7.356,0-14.236,2.369-19.246,5.958-4.8,3.439-11.73,11.43-12.256,23.491-.133,3.058.035,6.359.628,9.176.968-.04,1.95.269,2.682.85.825-.288,1.649-.575,2.474-.863,1.258-.439,2.534-.887,3.621-1.655" style="fill: rgb(34, 58, 112);"></path><path class="k" d="M2.625,112.53c-.671-2.348-.671-4.898-.47-6.978.284-2.932,1.094-4.818,2.56-6.814,4.668-6.36,11.625-7.86,19.117-7.966.372-.005.753-.007,1.101.124,2.257.845,3.341,6.643,3.651,8.682.51,3.348.294,6.871-.866,10.067-1.946,5.365-7.055,9.751-12.428,11.675-1.137-3.405-1.442-6.911-1.973-10.461-2.641.33-7.305,1.525-10.693,1.671Z" style="fill: rgb(34, 58, 112);"></path><path class="k" d="M353.813,38.106c.151,1.713.257,4.155-.011,5.876-.383,2.456-2.256,5.566-3.576,7.186-1.735,2.13-4.203,3.613-6.739,4.671-2.155.899-6.344,1.575-9.498.134-2.6-4.651-3.741-10.914-1.68-15.812,1.867-4.439,7.464-7.736,12.074-9.129.814,2.918,1.287,5.444,2.079,8.121,1.329-.215,4.694-.667,7.352-1.047Z" style="fill: rgb(34, 58, 112);"></path><path class="k" d="M163.396,221.876c.003-1.542-.012-3.325-.04-5.275-1.968-.792-4.167-2.295-6.181-4.178.161,4.808.263,7.878.263,7.878.117,3.514.376,7.024.764,10.52,3.066-1.611,5.188-4.992,5.195-8.945Z" style="fill: rgb(34, 58, 112);"></path><path class="k" d="M86.723,220.604c.031.346.061.696.093,1.022.265,2.716.605,5.626,2.277,7.678.655.804,1.443,1.388,2.311,1.819.347-2.927.629-5.868.785-8.877,0,0,.168-3.238.426-8.21-1.822,2.6-3.885,4.879-5.892,6.569Z" style="fill: rgb(34, 58, 112);"></path><path class="k" d="M85.091,173.706c4.559-5.214,10.577-9.183,17.261-12.144.283.145.579.289.877.434,2.202-.941,4.7-2.021,4.81-2.06,1.77-.67,2.62-2.61,2.99-4.74.15-.864.269-1.526.363-2.169l-1.034.049c-1.45.01-12.404-.558-19.225,1.257-1.761.469-3.705,1.202-4.903,3.029-.829,1.265-1.378,3.132-1.297,6.243.036,1.403.082,5.126.158,10.101Z" style="fill: rgb(34, 58, 112);"></path><path class="k" d="M137.042,151.774c-.125.064-.247.14-.373.2.09.923.22,1.976.451,3.221.34,1.98,1.2,3.9,3.05,4.76.89.411,3.176,1.219,5.61,2.064l.758-.32c2.383,1.07,4.683,2.271,6.86,3.612,3.142,1.935,6.024,4.165,8.541,6.718-.17-4.174-.316-7.545-.406-9.556-.056-1.242-.253-4.421-2.308-6.973-.62-.77-2.255-1.982-4.55-2.611-5.134-1.412-13.467-1.3-17.632-1.117Z" style="fill: rgb(34, 58, 112);"></path><path class="k" d="M146.369,407.397c1.034.979,2.112,1.898,3.338,2.605,4.086,2.355,8.944,3.409,13.631,2.797,2.05-.267,4.102-.85,5.793-2.039s2.987-3.047,3.161-5.107c.247-2.929-1.53-5.703-3.614-7.777-5.345-5.32-11.012-10.543-15.733-16.366-2.367,3.258-6.607,4.191-10.406,3.414-3.494-.715-6.607-2.626-9.644-4.494-2.907-1.787-3.344,6.603-3.413,8.422-.109,2.88-.581,6.685,1.704,8.815,1.642,1.53,5.161,3.318,7.307,3.975,3.507,1.072,5.316,3.331,7.876,5.755Z" style="fill: rgb(34, 58, 112);"></path><path class="k" d="M103.659,407.397c-1.034.979-2.112,1.898-3.338,2.605-4.086,2.355-8.944,3.409-13.631,2.797-2.05-.267-4.102-.85-5.793-2.039s-2.987-3.047-3.161-5.107c-.247-2.929,1.53-5.703,3.614-7.777,5.345-5.32,11.012-10.543,15.733-16.366,2.367,3.258,6.607,4.191,10.406,3.414,3.494-.715,6.607-2.626,9.644-4.494,2.907-1.787,3.344,6.603,3.413,8.422.109,2.88.581,6.685-1.704,8.815-1.642,1.53-5.161,3.318-7.307,3.975-3.507,1.072-5.316,3.331-7.876,5.755Z" style="fill: rgb(34, 58, 112);"></path><path class="k" d="M102.233,182.391c.527.045,1.609.131,1.609.131,1.096.087,2.043.327,2.788.803.247-4.515.81-14.651.334-23.88-.457.136-.948.307-1.459.504-3.324,1.281-7.513,3.652-8.972,4.526-.129.942-.114,5.335-.162,6.524-.15,3.725-.472,7.973-1.15,12.41,2.14-.889,4.588-1.129,7.012-1.018Z" style="fill: rgb(34, 58, 112);"></path><path class="k" d="M103.499,205.927c-1.479.051-4.118-.152-5.178.223l-.401.047c-.808.874-1.703,1.454-2.671,1.815l.251,2.245c-.83,1.883-1.815,3.582-2.894,5.087-.464,2.824-.689,4.859-1.01,7.077,1.239-.396,2.012-.797,2.871-1.397,1.131-.79,2.248-1.757,3.133-2.808,1.584-1.879,2.961-3.952,3.979-6.192.328-.722,1.3-3.163,2.175-6.11-.085.004-.171.01-.255.013Z" style="fill: rgb(34, 58, 112);"></path><path class="k" d="M146.816,180.165s1.084-.02,1.611-.032c2.058.031,4.112.328,5.96,1.036-.466-3.623-.709-7.076-.834-10.17-.048-1.189-.032-5.582-.162-6.524-1.647-.987-6.774-3.882-10.207-4.962-.076-.024-.15-.047-.224-.069-.472,9.134-.422,14.293.153,22.048.849-.946,2.138-1.299,3.704-1.327Z" style="fill: rgb(34, 58, 112);"></path><path class="k" d="M157.02,212.87c-2.685-2.16-5.126-4.895-6.376-7.657l.493-1.121-.259-.047c-1.034-.438-3.676-.397-5.146-.537-.043-.004-.087-.01-.131-.015.113.474.23.97.352,1.502.922,3.171,2.488,6.182,4.311,8.925,1.235,1.858,4.276,6.895,6.911,6.574-.079-2.47-.148-4.573-.153-7.211,0,0,0-.144-.002-.412Z" style="fill: rgb(34, 58, 112);"></path><path class="k" d="M248.986,223.088s.29-4.536.579-9.047c-2.038,2.65-4.265,4.852-6.381,6.347.018.192.035.398.053.585.296,3.035.677,6.288,2.545,8.581.743.911,1.639,1.571,2.626,2.055.212-2.839.417-5.678.578-8.52Z" style="fill: rgb(34, 58, 112);"></path><path class="k" d="M288.51,189.466c.827-2.299,1.813-5.097,2.867-8.15l-.466-2.006c-.842-5.627-1.789-12.885-1.778-13.185.006-.663.594-2.558.698-2.991,0,0,.263-.652.596-1.48-.741-.669-1.47-1.328-2.078-1.879h-1.45c-.84,0-1.715.003-2.508.006h-1.259c-.505.532-1.11,1.161-1.74,1.804.246.588.422,1.008.422,1.008.144.732.69,3.125.69,3.494,0,.213-.416,5.466-1.148,11.444,0,0-.25,1.17-.569,2.659,2.384,6.219,4.533,11.72,5.689,14.745.398-.987,1.119-2.922,2.036-5.47Z" style="fill: rgb(34, 58, 112);"></path></g></g><g id="f"><path class="i" d="M24.309,45.586c1.63-1.045,3.396-2.212,5.348-2.507,1.826-.275,3.876-.147,5.646.382,3.61,1.08,7.575,4.43,7.919,8.415l.273-1.009c-2.155,3.259-5.697,6.319-9.721,6.769-3.99.446-7.987-2.34-10.672-5.006v2.828c1.781-1.675,3.671-3.229,5.428-4.929.576-.557.83-1.734.313-2.424-1.299-1.732-2.545-3.504-3.817-5.255-.634-.873-1.738-1.301-2.736-.718-.862.504-1.356,1.858-.718,2.736,1.272,1.751,2.518,3.524,3.817,5.255l.313-2.424c-1.757,1.7-3.647,3.255-5.428,4.929-.785.738-.749,2.084,0,2.828,2.892,2.872,6.699,5.418,10.799,6.045,4.284.655,8.363-1.126,11.626-3.811,1.58-1.3,3.272-2.988,4.25-4.807s-.591-4.909-1.569-6.47c-2.179-3.477-6.057-6.312-10.116-7.081-2.192-.415-4.469-.491-6.671-.113-2.276.39-4.386,1.681-6.303,2.91-2.16,1.385-.157,4.849,2.019,3.454Z"></path><path class="i" d="M4.554,111.999c-1.226-4.595-.516-9.615,2.684-13.217,2.926-3.295,6.898-4.943,11.185-5.618,1.04-.164,2.093-.251,3.143-.312.502-.029,1.005-.05,1.507-.064.237-.007.52.015.76-.016.576-.075.163-.127.438.024-.15-.082.237.268.278.324.232.314.416.688.578,1.043.356.782.595,1.625.813,2.455,1.106,4.192,1.39,8.753-.281,12.845-1.896,4.642-6.271,8.224-10.899,9.929l2.46,1.397c-1.098-3.399-1.456-6.943-1.973-10.461-.113-.767-1.145-1.572-1.929-1.468-3.575.473-7.083,1.48-10.693,1.671-2.561.136-2.577,4.137,0,4,3.626-.192,7.11-1.197,10.693-1.671l-1.929-1.468c.517,3.518.875,7.062,1.973,10.461.311.963,1.408,1.784,2.46,1.397,5.331-1.964,10.282-5.732,12.88-10.881,2.531-5.016,2.544-10.736,1.273-16.103-.494-2.085-1.166-4.428-2.644-6.046-1.8-1.97-4.665-1.485-7.068-1.271-5.38.478-10.641,2.042-14.672,5.794-2.19,2.039-4.034,4.64-4.867,7.536-.982,3.414-.939,7.369-.027,10.785.663,2.485,4.522,1.431,3.857-1.063Z"></path><path class="i" d="M351.813,38.106c.197,2.345.411,4.844-.408,7.095-.766,2.104-2.082,4.218-3.717,5.755-3.089,2.905-8.526,5.068-12.69,3.29l.718.718c-2.302-4.241-2.831-10.029-1.042-14.562,1.583-4.01,6.395-6.252,10.24-7.441l-2.46-1.397c.741,2.695,1.299,5.436,2.079,8.121.326,1.123,1.377,1.569,2.46,1.397,2.444-.387,4.902-.698,7.352-1.047,1.07-.153,1.657-1.514,1.397-2.46-.316-1.15-1.387-1.55-2.46-1.397-2.45.349-4.907.66-7.352,1.047l2.46,1.397c-.78-2.684-1.338-5.426-2.079-8.121-.28-1.018-1.425-1.717-2.46-1.397-4.096,1.266-8.333,3.355-11.056,6.77-2.928,3.673-3.505,8.862-2.937,13.401.307,2.451.945,4.813,2.047,7.032,1.153,2.32,4.486,2.569,6.825,2.493,4.66-.151,9.561-2.375,12.644-5.903,1.682-1.924,3.027-4.229,3.888-6.633.926-2.587.777-5.463.551-8.158-.214-2.547-4.216-2.569-4,0Z"></path><path class="i" d="M70.845,22.828c.449-3.338.966-6.844,2.874-9.693,1.754-2.62,4.181-5.072,6.951-6.604,5.402-2.989,12.996-3.862,18.236-.047l-.919-1.195c1.844,6.308,1.854,14.209-2.283,19.677-3.654,4.829-10.793,6.813-16.549,7.276l2,2c-.189-3.725-.114-7.459-.358-11.182-.074-1.13-.859-1.931-2-2-3.297-.201-6.588-.51-9.881-.764-2.567-.198-2.554,3.803,0,4,3.293.254,6.584.563,9.881.764l-2-2c.243,3.723.169,7.456.358,11.182.051,1.013.877,2.09,2,2,5.803-.467,11.86-2.143,16.535-5.733,5.009-3.846,7.175-10.037,7.425-16.19.128-3.138-.245-6.339-1.066-9.37-.436-1.61-1.547-2.349-3.003-3.062-1.482-.726-3.06-1.243-4.684-1.536-5.988-1.08-12.742.353-17.667,3.982-2.683,1.977-5.107,4.565-6.836,7.416-1.817,2.996-2.412,6.594-2.872,10.015-.144,1.069.256,2.147,1.397,2.46.931.256,2.315-.319,2.46-1.397Z"></path><path class="i" d="M362.668,80.468c-.966,2.185-1.625,4.709-1.559,7.116.065,2.352.754,4.685,1.687,6.83,1.714,3.942,5.429,7.15,9.339,8.787,2.004.838,4.091,1.452,6.262,1.646,1.007.09,2.42.183,3.319-.344.98-.574,1.76-1.959,2.271-2.944,2.141-4.129,2.216-9.306,1.292-13.785-1.06-5.143-5.553-9.677-9.904-12.299-.91-.548-2.217-.219-2.736.718-1.248,2.249-2.345,4.579-3.624,6.81l2.259-.919c-2.102-.877-4.232-1.69-6.347-2.534-1.003-.401-2.197.438-2.46,1.397-.313,1.139.39,2.058,1.397,2.46,2.115.845,4.245,1.657,6.347,2.534.797.333,1.859-.222,2.259-.919,1.28-2.232,2.377-4.561,3.624-6.81l-2.736.718c3.559,2.145,7.302,5.838,8.096,10.073.751,4.003.704,9.153-2.16,12.36l.883-.514c-2.132.351-4.602-.511-6.539-1.322-2.037-.853-3.716-2.182-5.198-3.81-3.197-3.512-4.261-8.826-2.316-13.228.436-.987.288-2.148-.718-2.736-.851-.497-2.298-.276-2.736.718Z"></path><g id="g"><path class="i" d="M246.843,230.619c-.379-.31-.734-.662-1.06-1.061-1.87-2.3-2.25-5.55-2.55-8.59-.018-.189-.037-.381-.055-.576,1.116-.788,2.262-1.772,3.395-2.914.046.773.078,1.287.078,1.287.074,1.185.222,3.259.393,5.782.656-.001,1.283-.154,1.88-.417-.15,2.497-.33,4.992-.516,7.486-.555-.271-1.08-.599-1.565-.996Z"></path><path class="i" d="M243.349,170.401c-.06-3.849-.114-7.698-.173-11.547-.04-2.568-.414-5.452.657-7.853,1.369-3.07,5.419-3.58,8.361-4.034,3.357-.517,6.789-.641,10.181-.682,2.393-.029,4.782.078,7.174.075,2.574-.002,2.578-4.002,0-4-6.056.006-12.05-.176-18.071.698-3.808.553-7.998,1.464-10.395,4.754-1.988,2.728-1.987,6.264-1.932,9.49.075,4.366.13,8.732.198,13.098.04,2.571,4.04,2.579,4,0h0Z"></path><path class="i" d="M241.169,220.391c.242,2.387.419,4.859,1.256,7.128.921,2.497,2.543,4.631,4.975,5.819.939.459,2.206.286,2.736-.718.475-.899.286-2.246-.718-2.736-.219-.107-.436-.219-.646-.343-.132-.078-.261-.161-.388-.246-.029-.019-.325-.234-.171-.116s-.133-.115-.159-.138c-.095-.083-.187-.168-.277-.256-.208-.202-.396-.418-.584-.638.124.145.099.137-.002-.011-.065-.095-.131-.19-.194-.287-.141-.218-.27-.444-.39-.674-.054-.103-.105-.206-.155-.311-.017-.035-.167-.368-.077-.159s-.049-.13-.063-.167c-.052-.137-.101-.275-.148-.415-.315-.938-.519-1.91-.672-2.886-.024-.15-.045-.301-.067-.451.03.2.022.174,0-.011-.029-.241-.058-.482-.085-.724-.061-.553-.115-1.106-.172-1.66-.105-1.038-.844-2.052-2-2-.993.044-2.113.885-2,2h0Z"></path><path class="i" d="M326.769,214.611c.022,1.854.042,3.708.048,5.561.005,1.576-.048,2.876-.554,4.373-.834,2.463-2.649,4.349-5.103,5.388-.995.421-1.213,1.889-.718,2.736.602,1.03,1.738,1.14,2.736.718,3.201-1.356,5.542-4.122,6.776-7.323.639-1.657.866-3.444.864-5.212-.003-2.081-.025-4.162-.05-6.242-.031-2.572-4.031-2.579-4,0h0Z"></path><path class="i" d="M299.099,144.921c3.476-.157,6.962-.191,10.439-.029,3.517.164,7.613.283,10.83,1.867,2.941,1.448,4.127,4.386,4.341,7.541.257,3.798.338,7.617.49,11.42.103,2.565,4.103,2.578,4,0-.139-3.456-.286-6.911-.438-10.366-.127-2.889-.606-5.783-2.159-8.283-3.527-5.679-11.658-5.965-17.629-6.204-3.289-.132-6.586-.095-9.874.053-2.564.116-2.578,4.116,0,4h0Z"></path><path class="i" d="M298.179,382.301c-.175-2.167-.235-4.34-.37-6.51-.065-1.042-.873-2.05-2-2-1.028.046-2.07.882-2,2,.135,2.17.195,4.343.37,6.51.043.538.194,1.022.586,1.414.347.347.916.608,1.414.586,1.011-.045,2.09-.883,2-2h0Z"></path><path class="i" d="M311.099,375.741c.138,1.821.305,3.642.493,5.458.078.755.151,1.521.327,2.261.212.891.65,1.63,1.306,2.265.753.728,2.089.805,2.828,0,.723-.787.803-2.051,0-2.828-.118-.114-.237-.29-.369-.383.211.291.265.353.162.184-.088-.179-.06-.106.084.218-.046-.249-.154-.495-.205-.746-.032-.155-.055-.312-.082-.468-.063-.371.061.517-.004-.042-.029-.254-.055-.509-.08-.764-.17-1.717-.331-3.435-.462-5.155-.079-1.041-.863-2.051-2-2-1.016.045-2.085.883-2,2h0Z"></path><path class="i" d="M274.129,375.791c-.136,2.193-.197,4.39-.38,6.58-.04.485.252,1.081.586,1.414.347.347.916.608,1.414.586,1.158-.052,1.907-.88,2-2,.183-2.19.244-4.387.38-6.58.065-1.046-.966-2.046-2-2-1.139.051-1.931.879-2,2h0Z"></path><path class="i" d="M258.764,385.675c1.258-1.211,1.433-2.87,1.59-4.522.171-1.803.358-3.605.496-5.412.08-1.046-.977-2.046-2-2-1.152.052-1.914.88-2,2-.129,1.694-.302,3.383-.464,5.074-.027.282-.052.564-.084.845-.018.159-.122.491.014-.076-.037.153-.048.315-.077.469-.056.293-.174.574-.23.862.144-.324.172-.397.084-.218-.104.171-.048.107.169-.191-.115.101-.215.233-.326.34-.755.727-.786,2.107,0,2.828.811.744,2.023.776,2.828,0h0Z"></path><path class="i" d="M307.751,410.381c3.251,3.044,7.248,5.048,11.654,5.788,4.224.709,9.045.535,12.837-1.668,3.83-2.225,5.858-6.643,4.324-10.917-1.499-4.176-5.237-7.092-8.308-10.104-3.86-3.786-7.681-7.619-11.103-11.813-.903-1.107-2.445-.511-3.141.405-2.923,3.845-8.508,2.89-12.263,1.078-1.209-.583-2.374-1.254-3.525-1.945-.907-.545-1.802-1.258-2.876-1.406-1.593-.219-2.865.811-3.548,2.176-1.27,2.538-1.402,5.66-1.525,8.447-.099,2.242-.302,4.559.294,6.755.622,2.291,2.145,3.801,4.084,5.06,2.217,1.438,4.604,2.206,7.006,3.225,2.445,1.037,4.211,3.127,6.089,4.92,1.862,1.778,4.695-1.047,2.828-2.828-1.661-1.586-3.233-3.28-5.148-4.571-1.836-1.237-3.985-1.692-5.956-2.64-1.556-.748-3.821-1.711-4.692-3.308-.925-1.695-.631-3.94-.543-5.789.119-2.484.045-5.074,1.059-7.362-.115.259.2-.27.223-.366-.03.123-.13.134-.195.14-.159.014-.484.03-.63.065-.2.047-.181-.308-.016.005.233.44,1.453.89,1.911,1.162,2.244,1.333,4.605,2.57,7.132,3.272,5.072,1.409,10.481.222,13.744-4.07l-3.141.405c2.537,3.11,5.293,6.026,8.125,8.866,2.785,2.793,5.848,5.411,8.439,8.385,2.108,2.418,3.226,5.776.666,8.296-2.482,2.443-6.647,2.701-9.918,2.415-4.136-.362-8.039-2.077-11.06-4.905-1.878-1.758-4.712,1.064-2.828,2.828Z"></path><path class="i" d="M261.473,407.552c-2.72,2.547-6.011,4.074-9.678,4.724-3.324.589-7.401.438-10.318-1.444-1.212-.782-2.253-2.039-2.49-3.495-.266-1.629.478-3.222,1.364-4.538,1.028-1.528,2.476-2.77,3.783-4.053,1.438-1.411,2.882-2.817,4.313-4.236,3.234-3.206,6.398-6.485,9.279-10.016l-3.141-.405c2.872,3.779,7.356,5.158,11.97,4.455,2.522-.384,4.927-1.449,7.155-2.657,1.116-.605,2.197-1.268,3.282-1.927.681-.414.548-.247-.017-.229-.058.002-.542-.169-.306-.092-.033-.011-.08-.052-.079-.051.056.198.27.529.441,1.121.201.695.337,1.411.445,2.126.143.944.24,2.253.29,3.359.083,1.822.347,3.791-.06,5.588-.443,1.951-1.953,2.843-3.605,3.768-2.148,1.203-4.57,1.736-6.695,2.946-2.277,1.296-4.057,3.266-5.932,5.057-1.866,1.781.966,4.607,2.828,2.828,1.673-1.597,3.233-3.399,5.285-4.524.916-.502,1.916-.752,2.882-1.133,1.193-.471,2.361-1.009,3.485-1.627,1.904-1.049,3.928-2.332,4.923-4.34,1.02-2.059,1.072-4.406.977-6.656-.123-2.935-.146-6.075-1.097-8.882-.482-1.423-1.284-2.944-2.852-3.366-2.075-.558-4.156,1.439-5.821,2.365-4.065,2.262-10.588,4.4-14.044-.147-.696-.915-2.238-1.511-3.141-.405-2.979,3.652-6.261,7.033-9.61,10.344-1.707,1.688-3.43,3.359-5.138,5.046-1.51,1.491-3.005,3.038-3.978,4.949-2.048,4.019-1.365,8.622,2.228,11.509,3.338,2.682,8.074,3.331,12.229,2.925,5.153-.503,9.89-2.514,13.674-6.058,1.883-1.763-.95-4.588-2.828-2.828Z"></path><path class="i" d="M287.808,203.155c-.423-.18-.847-.381-1.301-.471-.654-.129-1.282-.106-1.93.06-.883.226-1.788.76-2.38,1.458-.745.879-1.133,1.839-1.214,2.987-.063.886.214,1.788.708,2.52.51.755,1.158,1.443,1.961,1.891s1.692.612,2.606.646c1.096.041,2.086-.227,2.918-.96.661-.583,1.174-1.486,1.385-2.337.319-1.29.073-2.51-.559-3.658-.491-.892-1.255-1.714-2.193-2.138-.505-.228-.987-.354-1.541-.202-.464.128-.967.486-1.195.919-.245.464-.368,1.026-.202,1.541.151.466.454.985.919,1.195.225.101.432.224.628.375l-.405-.313c.184.15.346.317.494.502l-.313-.405c.241.317.433.664.59,1.03l-.202-.478c.091.23.158.46.192.705l-.071-.532c.021.214.015.419-.013.632l.071-.532c-.04.247-.103.482-.199.713l.202-.478c-.109.247-.242.476-.405.692l.313-.405c-.116.144-.24.273-.383.391l.405-.313c-.099.074-.199.137-.31.19l.478-.202c-.144.059-.289.09-.443.112l.532-.071c-.416.048-.836.03-1.251-.025l.532.071c-.258-.038-.508-.091-.751-.186l.478.202c-.247-.106-.472-.242-.686-.404l.405.313c-.268-.213-.505-.456-.715-.727l.313.405c-.165-.221-.309-.453-.421-.706l.202.478c-.063-.152-.107-.303-.132-.467l.071.532c-.026-.234-.02-.464.007-.697l-.071.532c.035-.249.093-.488.189-.72l-.202.478c.088-.195.194-.376.321-.548l-.313.405c.167-.215.357-.403.572-.571l-.405.313c.199-.147.41-.269.637-.368l-.478.202c.231-.093.466-.158.713-.193l-.532.071c.157-.017.312-.027.469-.01l-.532-.071c.29.046.566.143.836.255l-.478-.202.061.026c.516.22.976.357,1.541.202.464-.128.967-.486,1.195-.919.245-.464.368-1.026.202-1.541-.149-.459-.454-.997-.919-1.195Z"></path><path class="i" d="M287.808,219.488c-.423-.18-.847-.381-1.301-.471-.654-.129-1.282-.106-1.93.06-.883.226-1.788.76-2.38,1.458-.745.879-1.133,1.839-1.214,2.987-.063.886.214,1.788.708,2.52.51.755,1.158,1.443,1.961,1.891s1.692.612,2.606.646c1.096.041,2.086-.227,2.918-.96.661-.583,1.174-1.486,1.385-2.337.319-1.29.073-2.51-.559-3.658-.491-.892-1.255-1.714-2.193-2.138-.505-.228-.987-.354-1.541-.202-.464.128-.967.486-1.195.919-.245.464-.368,1.026-.202,1.541.151.466.454.985.919,1.195.225.101.432.224.628.375l-.405-.313c.184.15.346.317.494.502l-.313-.405c.241.317.433.664.59,1.03l-.202-.478c.091.23.158.46.192.705l-.071-.532c.021.214.015.419-.013.632l.071-.532c-.04.247-.103.482-.199.713l.202-.478c-.109.247-.242.476-.405.692l.313-.405c-.116.144-.24.273-.383.391l.405-.313c-.099.074-.199.137-.31.19l.478-.202c-.144.059-.289.09-.443.112l.532-.071c-.416.048-.836.03-1.251-.025l.532.071c-.258-.038-.508-.091-.751-.186l.478.202c-.247-.106-.472-.242-.686-.404l.405.313c-.268-.213-.505-.456-.715-.727l.313.405c-.165-.221-.309-.453-.421-.706l.202.478c-.063-.152-.107-.303-.132-.467l.071.532c-.026-.234-.02-.464.007-.697l-.071.532c.035-.249.093-.488.189-.72l-.202.478c.088-.195.194-.376.321-.548l-.313.405c.167-.215.357-.403.572-.571l-.405.313c.199-.147.41-.269.637-.368l-.478.202c.231-.093.466-.158.713-.193l-.532.071c.157-.017.312-.027.469-.01l-.532-.071c.29.046.566.143.836.255l-.478-.202.061.026c.516.22.976.357,1.541.202.464-.128.967-.486,1.195-.919.245-.464.368-1.026.202-1.541-.149-.459-.454-.997-.919-1.195Z"></path><path class="i" d="M247.441,255.459c.933,14.63,1.632,29.277,2.275,43.922.685,15.592,1.183,31.191,1.844,46.784.416,9.809.834,19.617,1.172,29.429.088,2.567,4.089,2.579,4,0-.602-17.499-1.469-34.988-2.073-52.488-.507-14.698-1.161-29.392-1.901-44.08-.396-7.858-.817-15.716-1.317-23.568-.163-2.556-4.164-2.575-4,0h0Z"></path><path class="i" d="M284.458,285.331c-.613,14.874-1.08,29.758-1.81,44.627-.478,9.735-1.027,19.466-1.512,29.2-.275,5.518-.549,11.037-.743,16.559-.09,2.575,3.91,2.571,4,0,.367-10.489.958-20.971,1.508-31.451.536-10.198,1.008-20.393,1.417-30.597.378-9.446.75-18.893,1.14-28.339.106-2.574-3.894-2.569-4,0h0Z"></path><path class="i" d="M319.034,255.926c-.348,14.676-.94,29.346-1.484,44.016-.574,15.493-1.071,30.986-1.42,46.486-.219,9.723-.437,19.445-.736,29.166-.079,2.575,3.921,2.572,4,0,.534-17.301.793-34.609,1.325-51.91.451-14.689,1.056-29.373,1.578-44.06.281-7.898.551-15.798.739-23.699.061-2.575-3.939-2.574-4,0h0Z"></path><path class="i" d="M284.485,285.316c.51,14.944.882,29.893,1.413,44.836.332,9.339.796,18.674,1.18,28.012.24,5.85.483,11.701.655,17.554.075,2.568,4.076,2.579,4,0-.322-10.982-.834-21.96-1.305-32.937-.456-10.623-.816-21.245-1.14-31.873-.26-8.531-.511-17.062-.803-25.592-.088-2.567-4.088-2.579-4,0h0Z"></path><path class="i" d="M254.732,377.594c4.326.432,8.792.204,13.132.211,4.842.007,9.688.027,14.529-.087,2.57-.061,2.579-4.061,0-4-4.841.114-9.687.094-14.529.087-4.34-.007-8.806.221-13.132-.211-1.076-.107-2,.996-2,2,0,1.171.921,1.892,2,2h0Z"></path><path class="i" d="M317.393,373.594c-4.326.432-8.792.204-13.132.211-4.842.007-9.688.027-14.529-.087-2.575-.061-2.574,3.939,0,4,4.841.114,9.687.094,14.529.087,4.34-.007,8.806.221,13.132-.211,1.075-.107,2-.842,2-2,0-.998-.919-2.108-2-2h0Z"></path><path class="i" d="M265.027,155.914c1.417-.584,2.785-1.287,4.178-1.925.105-.048.211-.094.316-.143.249-.115-.549.229-.351.148.193-.079.39-.153.575-.251.678-.36,1.319-.865,1.871-1.394,1.003-.963,1.683-2.159,2.162-3.452.438-1.183.639-2.464.807-3.71.076-.558.096-1.033-.202-1.541-.243-.415-.718-.811-1.195-.919-.939-.214-2.31.288-2.46,1.397-.141,1.042-.31,2.099-.609,3.109-.065.221-.142.438-.219.655-.017.049-.057.111-.063.163,0,.008.184-.396.087-.208-.064.122-.116.251-.179.374-.121.233-.255.46-.402.678-.042.061-.288.399-.102.151.184-.245-.116.127-.175.191-.184.2-.382.38-.584.561-.275.247.267-.177-.047.04-.145.1-.289.2-.439.293-.369.229-.023.027.111.008-.164.024-.374.156-.523.22-.087.037-.173.076-.259.115-.664.301-1.323.614-1.983.924-.38.178-.76.357-1.141.535-.234.109-1.214.528-.237.126-.503.207-.909.431-1.195.919-.251.429-.357,1.061-.202,1.541.3.928,1.424,1.824,2.46,1.397h0Z"></path><path class="i" d="M295.145,143.965c.167,1.306.338,2.63.659,3.908.378,1.504,1.059,2.857,2.061,4.038.315.372.944.586,1.414.586.491,0,1.076-.218,1.414-.586.782-.852.725-1.974,0-2.828-.049-.058-.095-.123-.148-.178.355.37.161.21.074.087-.096-.136-.186-.275-.271-.418-.165-.277-.307-.567-.435-.863l.202.478c-.59-1.419-.805-2.988-1.008-4.502l.071.532c-.011-.084-.022-.169-.033-.253-.071-.551-.176-1.005-.586-1.414-.347-.347-.916-.608-1.414-.586-.517.023-1.054.193-1.414.586-.332.362-.651.902-.586,1.414h0Z"></path><path class="i" d="M308.384,165.806c-1.143-1.154-2.298-2.313-3.55-3.35l-.405,3.141c.435-.234.827-.581,1.22-.876.773-.58,1.547-1.158,2.33-1.724.434-.313.772-.662.919-1.195.132-.479.072-1.116-.202-1.541-.275-.427-.685-.803-1.195-.919-.496-.113-1.111-.109-1.541.202-.783.565-1.557,1.144-2.33,1.724-.393.295-.785.642-1.22.876-1.058.569-1.387,2.328-.405,3.141,1.252,1.037,2.407,2.196,3.55,3.35.737.744,2.1.793,2.828,0,.736-.801.787-2.034,0-2.828h0Z"></path><path class="i" d="M305.029,169.351v.01l.273-1.009c-3.82,7.063-7.262,14.328-11.01,21.43-1.201,2.275,2.251,4.299,3.454,2.019,2.151-4.075,4.228-8.189,6.313-12.299.959-1.891,1.918-3.783,2.886-5.669.365-.711.731-1.421,1.102-2.129s.982-1.538.982-2.353c0-2.574-4-2.578-4,0h0Z"></path><path class="i" d="M308.654,152.416c-2.009-1.796-4.205-3.432-6.545-4.773-.908-.521-2.229-.243-2.736.718-.503.952-.252,2.181.718,2.736,1.43.82,2.792,1.755,4.097,2.761l-.405-.313c.7.543,1.382,1.108,2.043,1.699.78.697,2.07.826,2.828,0,.699-.762.833-2.084,0-2.828h0Z"></path><path class="i" d="M264.63,164.818c.451.331.902.661,1.345,1.003l-.405-.313c.042.032.084.065.125.097v-2.828c-.477.475-.984.918-1.5,1.35-.195.181-.333.396-.414.644-.125.238-.183.495-.172.771-.01.275.047.532.172.771.081.248.219.463.414.644.381.35.882.61,1.414.586l.532-.071c.339-.095.633-.266.883-.514.516-.432,1.023-.875,1.5-1.35.195-.181.333-.396.414-.644.125-.238.183-.495.172-.771l-.071-.532c-.095-.339-.266-.633-.514-.883-.616-.482-1.244-.95-1.875-1.413-.23-.146-.477-.225-.744-.237-.266-.06-.532-.048-.798.036-.26.062-.487.181-.68.358-.218.141-.389.328-.515.561-.245.464-.368,1.026-.202,1.541l.202.478c.178.301.417.54.718.718h0Z"></path><path class="i" d="M263.682,173.25c4.306,6.216,8.515,12.527,13.09,18.55.652.859,1.724,1.309,2.736.718.846-.495,1.375-1.871.718-2.736-4.575-6.023-8.784-12.334-13.09-18.55-.614-.887-1.753-1.293-2.736-.718-.878.514-1.336,1.844-.718,2.736h0Z"></path><path class="i" d="M268.53,147.944c-1.691,1.004-3.314,2.132-4.88,3.32-.433.328-.769.65-.919,1.195-.132.479-.072,1.116.202,1.541.275.427.685.803,1.195.919.488.111,1.123.116,1.541-.202,1.566-1.188,3.189-2.316,4.88-3.32.434-.258.785-.707.919-1.195.132-.479.072-1.116-.202-1.541-.584-.905-1.774-1.289-2.736-.718h0Z"></path><path class="i" d="M314.368,111.347c.95-.794,2.644-.556,3.226.531.375.699.37,1.622.387,2.395.02.966-.031,1.939-.205,2.891-.35,1.913-1.008,3.76-2.046,5.409-.434.689-.968,1.375-1.608,1.884-.573.456-.883.595-1.563.414-2.49-.664-3.552,3.193-1.063,3.857,3.162.843,5.64-1.188,7.364-3.648,1.701-2.426,2.633-5.395,2.989-8.312.338-2.768.328-6.271-1.911-8.284-2.431-2.185-5.961-2.002-8.397.035-.829.693-.716,2.112,0,2.828.821.821,1.997.695,2.828,0h0Z"></path><path class="i" d="M309.917,124.116c-.06,1.387-.485,2.732-.943,4.034-.085.242-.181.481-.26.725-.107.333.222-.41.039-.098-.156.266-.272.563-.417.837-.9,1.696-1.995,3.331-3.158,4.837-2.831,3.667-6.596,7.478-11.292,8.507-2.513.551-1.45,4.408,1.063,3.857,5.557-1.218,10.008-5.587,13.371-9.941,2.876-3.723,5.386-7.922,5.596-12.758.112-2.574-3.889-2.568-4,0h0Z"></path><path class="i" d="M256.046,108.518c-2.435-2.036-5.968-2.218-8.397-.035-2.3,2.067-2.246,5.686-1.881,8.512.38,2.935,1.373,5.913,3.13,8.322,1.782,2.444,4.437,4.515,7.614,3.815,1.055-.233,1.672-1.458,1.397-2.46-.299-1.088-1.402-1.63-2.46-1.397-1.344.296-2.781-1.476-3.433-2.457-1.103-1.66-1.8-3.55-2.176-5.501-.181-.938-.247-1.891-.238-2.845.008-.831-.017-1.843.39-2.594.587-1.084,2.273-1.328,3.226-.531.828.692,2.017.812,2.828,0,.712-.712.832-2.132,0-2.828h0Z"></path><path class="i" d="M253.69,123.562c1.151,5.598,3.831,10.849,7.607,15.129,3.998,4.533,9.348,8.282,15.44,9.149,1.068.152,2.148-.262,2.46-1.397.258-.938-.321-2.307-1.397-2.46-10.486-1.493-18.22-11.602-20.253-21.485-.518-2.52-4.375-1.453-3.857,1.063h0Z"></path><path class="i" d="M318.073,109.212c1.457-8.956.56-18.445-4.436-26.227-4.669-7.273-12.247-12.596-20.63-14.672-8.467-2.097-17.81-1.203-25.581,2.814-5.802,2.999-10.857,7.844-14.05,13.543-2.162,3.858-3.435,8.095-3.946,12.477-.468,4.015-.079,8.091.564,12.067.173,1.067,1.5,1.661,2.46,1.397,1.135-.312,1.57-1.39,1.397-2.46-1.042-6.436-.906-13.112,1.81-19.147,2.352-5.226,6.263-9.685,11.048-12.823,13.04-8.551,31.508-5.742,41.508,6.143,6.006,7.138,7.461,16.829,5.998,25.825-.173,1.065.277,2.152,1.397,2.46.955.262,2.286-.325,2.46-1.397h0Z"></path><path class="i" d="M317.82,160.758c.642.376,1.261.786,1.894,1.175.229.141-.018-.038-.1-.098.062.045.12.095.18.143.138.11.276.22.413.331.27.218.539.436.807.657,1.171.962,2.321,1.949,3.451,2.959.779.697,2.07.826,2.828,0,.699-.762.833-2.083,0-2.828-1.16-1.038-2.343-2.051-3.547-3.038-.623-.511-1.243-1.048-1.905-1.507-.646-.447-1.325-.851-2.002-1.248-.904-.529-2.232-.237-2.736.718s-.247,2.172.718,2.736h0Z"></path><path class="i" d="M309.389,176.051c-.538-7.78-.498-15.523-.1-23.31l-2.532,1.929c3.871,1.184,7.557,3.257,11.012,5.338l-.991-1.727c.265,2.266.108,4.595.171,6.873.11,4.013.465,8.03.999,12.007.144,1.07.816,2,2,2,.969,0,2.145-.922,2-2-.521-3.878-.861-7.789-.99-11.7-.071-2.159-.01-4.324-.127-6.482-.073-1.36-.496-2.11-1.676-2.801-1.047-.613-2.109-1.199-3.181-1.767-2.614-1.384-5.318-2.732-8.154-3.599-1.3-.398-2.468.674-2.532,1.929-.398,7.787-.438,15.53.1,23.31.177,2.554,4.178,2.573,4,0h0Z"></path><path class="i" d="M308.121,201.162c1.125,4.643,3.003,8.796,5.628,12.79,1.101,1.676,2.25,3.348,3.618,4.82,1.577,1.698,3.343,2.704,5.462,3.577,1.293.533,2.452-.784,2.532-1.929.204-2.935.217-5.898.22-8.84.003-2.574-3.997-2.578-4,0-.003,2.942-.016,5.905-.22,8.84l2.532-1.929c-3.25-1.34-5.124-4.155-6.985-7.011-1.134-1.74-2.168-3.545-3.031-5.436-.877-1.92-1.402-3.903-1.897-5.946-.606-2.501-4.464-1.442-3.857,1.063h0Z"></path><path class="i" d="M241.225,195.346c-.267.277-.549.539-.84.79-.195.181-.333.396-.414.644-.125.238-.183.495-.172.771-.01.275.047.532.172.771.081.248.219.463.414.644l.405.313c.312.181.648.272,1.009.273l.532-.071c.339-.095.633-.266.883-.514.291-.251.573-.513.84-.79.195-.181.333-.396.414-.644.125-.238.183-.495.172-.771.01-.275-.047-.532-.172-.771-.081-.248-.219-.463-.414-.644l-.405-.313c-.312-.181-.648-.272-1.009-.273l-.532.071c-.339.095-.633.266-.883.514h0Z"></path><path class="i" d="M298.245,88.043c-1.743.954-3.53,1.834-5.373,2.577-1.458.588-3.43,1.645-5.059,1.495-.604-.055-.467-.008-.658-.558-.266-.767-.465-1.513-.983-2.159-1.292-1.613-3.364-1.661-5.237-1.278-6.364,1.301-12.482,4.875-16.832,9.672-2.363,2.606-4.286,5.572-5.823,8.73-1.121,2.306,2.327,4.336,3.454,2.019,2.544-5.232,6.168-9.838,11.177-12.901,2.75-1.681,5.907-3.058,9.087-3.664.271-.052.631-.149.912-.099.262.047.137-.006.171.031.175.189.227.765.306.997.135.392.285.801.499,1.158.888,1.482,2.612,2.119,4.279,2.046,2.078-.092,4.08-.941,5.98-1.717,2.093-.855,4.136-1.81,6.119-2.896,2.259-1.237.242-4.692-2.019-3.454h0Z"></path><path class="i" d="M300.595,96.466c.6.744,1.32,1.764,1.909,2.719.597.969,1.136,1.973,1.609,3.008.349.763.748,1.828,1.056,2.852.327,1.087.575,2.194.754,3.315.165,1.036,1.511,1.704,2.46,1.397,1.125-.364,1.574-1.35,1.397-2.46-.808-5.064-3.156-9.694-6.356-13.66-.66-.818-2.151-.738-2.828,0-.797.868-.704,1.956,0,2.828h0Z"></path><path class="i" d="M268.057,150.199c1.303,5.316,3.321,10.493,5.198,15.625,2.447,6.692,4.997,13.347,7.564,19.994,1.09,2.823,2.187,5.644,3.275,8.469.388,1.007,1.345,1.703,2.46,1.397.963-.265,1.787-1.447,1.397-2.46-4.66-12.106-9.481-24.165-13.675-36.444-.861-2.52-1.727-5.056-2.362-7.644-.613-2.499-4.471-1.441-3.857,1.063h0Z"></path><path class="i" d="M246.929,224.131c-.495,8.021-1.211,16.027-1.7,24.049-.102,1.665-.376,3.351-.417,5.015-.042,1.714.57,3.303,2.361,3.805,1.044.293,2.282.191,3.357.202,4.009.043,8.02.032,12.029-.026,3.762-.055,7.575-.048,11.317-.485,1.188-.139,2.38-.329,3.499-.769,1.731-.68,2.967-1.939,3.93-3.499,2.181-3.536,3.654-7.671,4.672-11.68.634-2.496-3.223-3.561-3.857-1.063-.594,2.338-1.34,4.645-2.313,6.855-.749,1.7-1.625,4.279-3.248,5.36-.709.472-1.616.593-2.435.758-.141.028-.675.09-.104.021-.203.024-.406.047-.609.068-1.097.111-2.199.172-3.3.224-5.639.269-11.296.278-16.94.255-1.109-.005-2.218-.012-3.327-.027-.342-.005-.686-.005-1.028-.018-.098-.004-.225-.025-.321-.009-.198.034-.228-.156-.111-.02l.514.883c-.247-.867.014-1.849.115-2.727.137-1.198.173-2.41.247-3.614.159-2.613.349-5.223.535-7.834.374-5.241.811-10.479,1.135-15.724.159-2.571-3.842-2.561-4,0h0Z"></path><path class="i" d="M299.168,148.839c-1.005,5.66-2.904,11.213-4.642,16.678-2.146,6.747-4.418,13.455-6.775,20.131-.889,2.519-1.785,5.037-2.732,7.535-.383,1.01.425,2.193,1.397,2.46,1.124.309,2.076-.383,2.46-1.397,4.507-11.89,8.605-24.025,12.123-36.243.769-2.67,1.539-5.362,2.026-8.1.189-1.062-.287-2.155-1.397-2.46-.967-.266-2.27.328-2.46,1.397h0Z"></path><path class="i" d="M279.885,163.126c.212,1.06.437,2.118.652,3.177.065.319.032-.47-.036-.162-.019.088-.013.192-.019.282-.027.377-.059.754-.091,1.131-.282,3.332-.632,6.66-1.036,9.979-.131,1.074,1.013,2,2,2,1.19,0,1.869-.923,2-2,.41-3.366.765-6.739,1.048-10.118.061-.725.117-1.35.007-2.072-.167-1.103-.449-2.187-.668-3.28-.212-1.06-1.472-1.669-2.46-1.397-1.104.303-1.61,1.398-1.397,2.46h0Z"></path><path class="i" d="M292.839,178.779c-.509-3.414-.972-6.739-1.395-10.021-.108-.84-.168-1.696-.305-2.531-.022-.136.054-.461-.035.035.054-.301.121-.599.195-.896.142-.569.317-1.13.461-1.699.632-2.496-3.225-3.561-3.857-1.063-.29,1.148-.794,2.367-.768,3.567.018.858.2,1.739.31,2.589.477,3.699.987,7.395,1.538,11.084.16,1.069,1.509,1.658,2.46,1.397,1.145-.315,1.557-1.388,1.397-2.46h0Z"></path><path class="i" d="M286.899,157.776c-.836,0-1.672.003-2.508.006-.514.002-1.05.222-1.414.586-.195.181-.333.396-.414.644-.125.238-.183.495-.172.771.023.517.193,1.054.586,1.414.39.358.873.588,1.414.586.836-.003,1.672-.006,2.508-.006.513,0,1.051-.223,1.414-.586.195-.181.333-.396.414-.644.125-.238.183-.495.172-.771-.023-.517-.193-1.054-.586-1.414s-.872-.586-1.414-.586h0Z"></path><path class="i" d="M297.495,149.287c-1.227.863-2.561,1.591-3.855,2.345-1.765,1.027-3.541,2.038-5.332,3.02-.613.336-1.227.674-1.853.987-.389.195-.764.368-1.082.686-.926.926-.889,2.505,0,3.442s1.927,1.754,2.881,2.616c1.5,1.357,3.002,2.712,4.502,4.069.801.724,2.038.791,2.828,0,.736-.736.804-2.101,0-2.828-1.422-1.286-2.845-2.571-4.268-3.857-.711-.643-1.422-1.286-2.132-1.93-.234-.213-.469-.425-.702-.639-.065-.059-.132-.117-.194-.178-.172-.17.072-.028.126.096l.273,1.009.005-.237-.273,1.009.095-.149-.718.718c.705-.528,1.639-.873,2.413-1.296,1.165-.638,2.323-1.29,3.477-1.948,1.954-1.115,3.985-2.184,5.827-3.48.882-.621,1.295-1.748.718-2.736-.51-.873-1.848-1.342-2.736-.718h0Z"></path><path class="i" d="M278.55,166.949c1.479-1.095,2.769-2.438,4.056-3.747,1.076-1.094,2.179-2.183,3.186-3.342,1.175-1.352.967-3.243-.689-4.093-.491-.252-.983-.499-1.47-.759-1.682-.898-3.349-1.823-5.01-2.756-1.451-.815-2.946-1.598-4.332-2.521-.899-.599-2.214-.176-2.736.718-.574.981-.184,2.136.718,2.736,1.776,1.184,3.704,2.175,5.568,3.212,1.112.619,2.226,1.233,3.347,1.836.732.394,1.613.718,2.282,1.21l-.718-.718.092.152-.273-1.009c.012-.997.741-1.18.393-.837-.067.066-.128.14-.191.21-.208.226-.418.45-.629.674-.653.694-1.313,1.381-1.979,2.063-.725.743-1.456,1.48-2.204,2.2-.32.308-.644.614-.974.911-.137.123-.275.245-.415.364-.061.052-.125.101-.185.154-.246.217.402-.302.145-.112-.867.641-1.305,1.733-.718,2.736.5.855,1.863,1.364,2.736.718h0Z"></path><path class="i" d="M254.388,180.032c.726-4.692,1.175-9.419,1.374-14.162.106-2.517-.096-5.085.197-7.589l-.991,1.727c3.456-2.081,7.142-4.154,11.012-5.338l-2.532-1.929c.423,8.597.122,17.211-.34,25.8-.138,2.572,3.862,2.565,4,0,.462-8.589.763-17.203.34-25.8-.062-1.255-1.233-2.326-2.532-1.929-3.004.92-5.865,2.368-8.625,3.85-1.022.549-2.062,1.093-3.044,1.712-1.252.789-1.319,1.827-1.365,3.156-.229,6.521-.35,12.965-1.352,19.438-.165,1.066.271,2.151,1.397,2.46.948.261,2.294-.323,2.46-1.397h0Z"></path><path class="i" d="M244.649,218.761c.13,1.93.263,3.86.4,5.79.074,1.049.856,2.04,2,2,4.952-.172,8.119-5.322,10.69-8.939,3.018-4.246,4.882-8.907,6.309-13.889.71-2.479-3.148-3.538-3.857-1.063-.628,2.191-1.343,4.362-2.191,6.478-.061.152-.122.305-.186.456.08-.189.098-.223.002-.013-.25.54-.508,1.075-.786,1.601-.629,1.193-1.333,2.344-2.087,3.462-1.16,1.721-2.414,3.418-3.755,5.005-1.035,1.225-2.407,2.844-4.139,2.904l2,2c-.137-1.93-.27-3.86-.4-5.79-.073-1.078-.867-2-2-2-1.026,0-2.073.917-2,2h0Z"></path><path class="i" d="M283.457,240.739c.684,2.683,1.6,5.283,2.72,7.815.922,2.084,1.937,4.487,3.679,6.031,2.273,2.014,5.54,2.159,8.43,2.327,6.076.351,12.182.336,18.265.31,1.954-.008,5.215.46,6.898-.732l-2.424-.313c1.118.926,2.755,1.092,3.607-.321.516-.856.416-1.957.322-2.906-.298-2.989-.308-6.004-.407-9.007-.258-7.827-.518-15.655-.6-23.486-.027-2.572-4.027-2.579-4,0,.068,6.499.26,12.995.469,19.49.101,3.139.207,6.279.309,9.418.033,1.009.047,2.011.164,3.013.045.386.092.772.117,1.16.011.169-.022.388.022.552.089.325.008-.174.402-.593l.883-.514-.076.028h1.063l.553.338c-.64-.53-1.663-.851-2.424-.313-.341.242-.929.148-1.353.155-.927.015-1.853.022-2.78.027-2.743.016-5.487.011-8.23-.015-2.903-.028-5.806-.075-8.707-.191-1.161-.047-2.322-.102-3.48-.194-.444-.035-.887-.08-1.331-.127-.37-.039.401.092-.128-.019-.309-.065-.62-.117-.927-.189-1.111-.262-1.92-.659-2.598-1.599-.727-1.008-1.261-2.192-1.79-3.311-1.197-2.532-2.101-5.186-2.792-7.898-.636-2.493-4.495-1.436-3.857,1.063h0Z"></path><path class="i" d="M245.894,167.865c.651-.675,1.326-1.326,2.026-1.951.365-.326.736-.644,1.112-.957.19-.157.381-.313.573-.467.086-.069.172-.136.258-.205.296-.235-.137.101.053-.042,1.601-1.21,3.265-2.324,4.993-3.346.901-.533,1.305-1.825.718-2.736s-1.773-1.287-2.736-.718c-3.565,2.109-6.944,4.606-9.825,7.593-.727.754-.806,2.089,0,2.828.787.722,2.052.804,2.828,0h0Z"></path><path class="i" d="M313.73,202.642c2.894,3.393,8.837,4.76,12.639,2.029,1.866-1.34,3.412-3.505,4.255-5.623,1.051-2.638.754-5.423-.089-8.074-1.458-4.591-3.073-9.429-6.375-13.055-3.321-3.647-8.45-4.588-13.165-4.497-2.208.043-4.498.322-6.079,2.04-2.206,2.396-1.782,5.658.165,8.026l1.414-3.414c-2.528.047-4.883,1.362-5.355,4.015-.487,2.737.727,5.477,3.377,6.487l-.478-3.655c-4.174,1.817-3.027,8.733,1.062,9.851v-3.857c-3.67,1.421-3.178,6.536-.186,8.455,1.426.915,3.175,1.135,4.83,1.246,1.444.097,3.061-.044,4.44.463,2.419.89,3.463-2.974,1.063-3.857-1.897-.698-4.092-.447-6.074-.65-.725-.074-1.82-.176-2.339-.756-.199-.223-.321-.526-.347-.825-.009-.104.016-.22-.004-.323-.077-.385.165-.084-.32.104,1.745-.676,2.045-3.298,0-3.857-1.007-.275-1.019-2.142-.106-2.54,1.751-.762.93-3.118-.478-3.655-.548-.209-.642-1.425-.527-1.874.18-.704.769-.759,1.442-.772,1.849-.034,2.486-2.11,1.414-3.414-.819-.996-.625-2.388.589-2.928,1.036-.461,2.468-.333,3.578-.333,3.334.001,6.931.798,9.256,3.348,2.387,2.617,3.478,5.985,4.636,9.253.654,1.845,1.493,3.815,1.357,5.814-.116,1.702-1.032,3.179-2.106,4.452-1.219,1.445-2.423,1.835-4.309,1.76-1.806-.072-3.194-.855-4.353-2.213-1.673-1.961-4.491.879-2.828,2.828h0Z"></path><path class="i" d="M306.496,184.075c1.261-.069,2.529-.058,3.791.005.672.033,1.401.03,2.06.175-.089-.019-.527-.079-.192-.024.078.013.156.024.234.037.148.025.295.052.441.083.256.054.508.119.756.203.992.335,2.23-.385,2.46-1.397.252-1.107-.335-2.102-1.397-2.46-1.344-.453-2.845-.536-4.252-.611-1.297-.068-2.602-.081-3.9-.01-1.043.057-2.05.879-2,2,.046,1.035.881,2.061,2,2h0Z"></path><path class="i" d="M305.599,190.792c1.366-.164,2.746-.217,4.121-.179.678.019,1.349.076,2.023.144.249.025-.538-.082-.133-.018.074.012.148.022.221.034.142.023.284.049.425.078.29.059.577.131.86.219.999.311,2.226-.367,2.46-1.397.247-1.086-.327-2.128-1.397-2.46-1.385-.431-2.891-.548-4.334-.595-1.416-.047-2.84.006-4.248.175-.549.066-1.008.18-1.414.586-.347.347-.608.916-.586,1.414.044.977.887,2.133,2,2h0Z"></path><path class="i" d="M306.374,196.546c1.593.007,3.193-.021,4.776.183l-.532-.071c.495.067.987.158,1.465.305,1,.306,2.225-.364,2.46-1.397.246-1.082-.326-2.132-1.397-2.46-1.143-.35-2.373-.452-3.561-.511-1.07-.053-2.14-.043-3.211-.048-1.046-.005-2.048.923-2,2,.049,1.088.879,1.995,2,2h0Z"></path><path class="i" d="M255.025,202.071c-1.949,2.017-5.959,2.853-8.035.536-1.067-1.191-1.979-2.701-2.281-4.283-.352-1.84.346-3.718,1.042-5.397,1.282-3.092,2.486-6.39,4.635-9.005,2.401-2.922,5.57-4.019,9.291-4.055,1.371-.013,3.012-.034,4.337.393,1.56.503,1.94,2.008.812,3.221-1.236,1.33-.304,3.277,1.414,3.414.554.044,1.109.177,1.265.751.161.595-.106,1.768-.754,1.97-1.548.485-2.08,2.838-.478,3.655.937.478.448,2.298-.483,2.493-1.607.336-2.033,2.941-.478,3.655.571.262.023.013.021-.1,0,.01.036.251.02.293-.107.269-.088.575-.27.824-.503.688-1.715.716-2.475.75-2.057.091-4.266-.283-6.27.318-2.459.738-1.412,4.6,1.063,3.857,1.291-.388,2.821-.164,4.15-.159,1.693.006,3.539-.09,5.05-.934,2.711-1.514,4.243-6.691.73-8.304l-.478,3.655c4.263-.89,5.396-7.785,1.438-9.804l-.478,3.655c2.603-.815,3.94-3.511,3.653-6.137-.307-2.814-2.59-4.231-5.228-4.442l1.414,3.414c1.852-1.992,2.487-4.779,1.06-7.218-1.213-2.072-3.466-2.811-5.722-3.041-4.336-.442-9.124-.155-12.769,2.502-3.976,2.899-5.833,7.446-7.694,11.811-1.034,2.425-2.147,5-1.872,7.703.266,2.616,1.462,4.83,3.081,6.859,3.465,4.343,10.474,3.743,14.116-.027,1.789-1.852-1.036-4.684-2.828-2.828h0Z"></path><path class="i" d="M266.24,182.895c-1.291-.15-2.594-.217-3.893-.228-1.412-.012-2.907.012-4.278.383-1.01.273-1.728,1.436-1.397,2.46.335,1.035,1.378,1.69,2.46,1.397.119-.032.239-.061.36-.086.089-.018.335-.016.406-.07-.044.033-.577.067-.224.031.077-.008.153-.017.23-.025.161-.016.322-.029.484-.04.688-.047,1.378-.056,2.067-.049,1.263.014,2.529.081,3.784.227.475.055,1.092-.263,1.414-.586.347-.347.608-.916.586-1.414-.023-.517-.193-1.054-.586-1.414-.416-.382-.857-.521-1.414-.586h0Z"></path><path class="i" d="M267.257,189.727c-1.548-.282-3.125-.455-4.697-.503-1.47-.045-2.989.009-4.422.361-1.017.249-1.723,1.453-1.397,2.46.342,1.055,1.371,1.664,2.46,1.397.257-.063.525-.088.781-.153-.051.013-.492.06-.211.029.093-.01.185-.021.278-.03.153-.015.307-.027.461-.037.683-.045,1.368-.048,2.051-.027s1.371.067,2.053.136c.166.017.332.035.497.054.102.012.203.025.304.038.266.032-.434-.063-.174-.023.318.05.636.097.954.155,1.026.187,2.206-.28,2.46-1.397.223-.979-.296-2.26-1.397-2.46h0Z"></path><path class="i" d="M265.601,195.351c-2.247-.127-4.576-.354-6.79.178-1.018.245-1.722,1.456-1.397,2.46.343,1.059,1.37,1.659,2.46,1.397.252-.06.505-.106.761-.142l-.532.071c1.82-.239,3.673-.068,5.497.036,1.046.059,2.046-.962,2-2-.051-1.134-.879-1.937-2-2h0Z"></path><path class="i" d="M278.698,132.817c1.527,1.495,3.891,1.974,5.951,1.973s4.424-.477,5.952-1.973c.749-.733.79-2.103,0-2.828-.805-.739-2.029-.782-2.828,0-.077.075-.371.31-.041.055.342-.264-.04.018-.137.078-.118.072-.239.139-.362.201-.081.041-.174.073-.252.118.101-.058.465-.177.15-.069-.396.136-.793.253-1.206.33-.151.028-.489.171-.019.014-.111.037-.256.028-.37.038-.295.025-.59.036-.886.036-.27,0-.541-.009-.811-.03-.127-.01-.321-.059-.447-.044.192-.023.352.053.048-.002-.415-.074-.826-.179-1.223-.323-.161-.059-.419-.229.101.051-.068-.037-.142-.064-.211-.098-.137-.067-.272-.14-.402-.221-.099-.061-.191-.136-.291-.197.577.35.276.223.113.063-.748-.733-2.092-.802-2.828,0-.726.791-.799,2.046,0,2.828h0Z"></path><path class="i" d="M283.666,120.273c.244.931.479,1.877.619,2.831l-.071-.532c.017.131.024.259.011.391l.071-.532c-.009.061-.023.118-.043.176l.202-.478c-.018.041-.037.076-.062.113l.313-.405c-.029.035-.057.063-.092.091l.405-.313c-.072.046-.147.083-.224.119l.478-.202c-.123.052-.246.089-.378.11l.532-.071c-.119.014-.236.013-.355,0l.532.071c-.134-.019-.265-.051-.399-.069-.266-.083-.532-.095-.798-.036-.266.012-.514.091-.744.237-.415.243-.811.718-.919,1.195-.117.512-.091,1.087.202,1.541.26.403.695.852,1.195.919.353.048.696.136,1.055.152.577.025,1.105-.156,1.617-.394.645-.299,1.153-.91,1.324-1.603.147-.593.087-1.071-.014-1.665-.154-.912-.365-1.816-.599-2.71-.127-.483-.49-.944-.919-1.195s-1.061-.357-1.541-.202c-.484.157-.951.457-1.195.919-.253.48-.342,1.007-.202,1.541h0Z"></path><path class="i" d="M269.396,112.687c-.462,1.502-.161,4.957,2.684,5.251,3.761-.022,3.961-4.199,2.695-6.163-1.036-1.608-4.084-2.277-5.379.913Z"></path><path class="i" d="M299.386,112.687c.462,1.502.161,4.957-2.684,5.251-3.761-.023-3.961-4.2-2.695-6.163,1.036-1.608,4.084-2.277,5.379.913Z"></path><path class="i" d="M315.072,203.59c2.485,5.331,7.303,10.312,12.688,12.748,5.216,2.36,12.055,1.173,15.856-3.275,1.699-1.988,2.434-4.39,2.89-6.922.48-2.669.636-5.221.302-7.913-.769-6.188-2.925-12.006-5.903-17.463-1.753-3.211-3.736-6.314-5.827-9.314-2.189-3.14-4.963-5.79-7.783-8.355-1.901-1.729-4.738,1.092-2.828,2.828,2.305,2.096,4.653,4.239,6.56,6.717,1.675,2.177,3.136,4.575,4.562,6.92,2.872,4.725,5.294,9.711,6.558,15.119,1.058,4.526,1.227,9.078-.257,13.537-1.311,3.938-6.574,6.125-10.57,5.171-2.771-.661-5.271-2.553-7.317-4.464-2.259-2.109-4.164-4.544-5.474-7.353-.456-.979-1.866-1.227-2.736-.718-1.004.587-1.176,1.754-.718,2.736h0Z"></path><path class="i" d="M243.065,165.036c-4.583,5.365-8.279,11.374-11.453,17.661-2.965,5.875-5.424,12.045-6.712,18.516-1.217,6.12-2.512,13.824,1.96,18.949,3.792,4.346,10.661,5.71,15.726,2.954,6.167-3.357,10.81-10.045,13.61-16.306.441-.985.285-2.15-.718-2.736-.854-.499-2.293-.274-2.736.718-2.257,5.048-5.548,9.961-9.943,13.399-2.075,1.623-4.235,2.625-6.899,2.334-2.19-.239-4.337-1.229-5.871-2.817-1.859-1.924-2.281-4.551-2.238-7.134.048-2.92.461-5.852,1.05-8.709,1.177-5.71,3.26-11.166,5.841-16.38,3.093-6.247,6.672-12.305,11.211-17.619,1.663-1.947-1.153-4.79-2.828-2.828h0Z"></path></g><g id="h"><path class="i" d="M87.846,227.081c-.638-1.69-.852-3.617-1.031-5.455-.032-.33-.064-.67-.095-1.02,1.472-1.239,2.975-2.795,4.39-4.562-.009.232-.015.424-.015.424,0,2,.074,4.222.259,6.074.29-.092.567-.192.833-.298-.156,3.012-.418,5.96-.765,8.89-.878-.429-1.67-1.021-2.33-1.831-.54-.663-.942-1.416-1.246-2.223Z"></path><path class="i" d="M87.089,173.701c-.051-3.659-.225-7.337-.165-10.996.024-1.456.162-3.105,1.032-4.334,1.022-1.444,2.854-1.927,4.486-2.303,5.874-1.356,11.943-.98,17.917-.986,2.574-.003,2.578-4.003,0-4-4.981.005-9.926-.176-14.888.444-3.207.401-6.758.903-9.342,3.008-2.567,2.09-3.221,5.462-3.207,8.612.016,3.518.118,7.039.167,10.557.036,2.572,4.036,2.579,4,0h0Z"></path><path class="i" d="M84.729,220.601c.195,2.262.346,4.618,1.102,6.777.822,2.347,2.323,4.349,4.579,5.48.934.469,2.21.279,2.736-.718.48-.908.281-2.236-.718-2.736-.194-.098-.386-.199-.573-.311-.117-.07-.231-.144-.343-.221-.035-.024-.316-.234-.128-.086s-.085-.078-.117-.106c-.084-.074-.165-.149-.245-.227-.184-.18-.35-.373-.519-.567.116.132.128.18.015.011-.061-.091-.123-.181-.182-.273-.132-.208-.253-.423-.365-.643-.05-.098-.092-.2-.144-.297-.137-.257.106.296.006.021-.085-.236-.176-.469-.252-.709-.286-.901-.454-1.829-.593-2.761-.048-.32.056.484-.007-.07-.013-.115-.027-.229-.04-.344-.026-.229-.05-.458-.073-.687-.051-.51-.096-1.021-.14-1.532-.09-1.04-.856-2.051-2-2-1.007.045-2.096.884-2,2h0Z"></path><path class="i" d="M161.359,216.601c.022,1.497.036,2.993.039,4.49.003,1.393-.007,2.146-.417,3.45-.21.669-.254.759-.562,1.329-.145.268-.301.529-.469.783-.074.112-.152.222-.229.331-.055.078-.188.234-.054.071-.381.463-.804.874-1.254,1.268-.079.07-.23.178-.06.052-.105.078-.213.153-.321.226-.272.183-.554.347-.843.502-.951.512-1.249,1.827-.718,2.736.562.961,1.782,1.231,2.736.718,2.608-1.404,4.503-3.79,5.497-6.557,1.061-2.956.7-6.317.654-9.4-.016-1.081-.908-2-2-2-1.072,0-2.016.915-2,2h0Z"></path><path class="i" d="M137.069,153.771c3.131-.131,6.272-.151,9.402.011,3.065.159,6.703.269,9.475,1.736,2.471,1.307,3.401,3.904,3.565,6.588.202,3.304.29,6.619.418,9.926.099,2.566,4.099,2.579,4,0-.136-3.522-.119-7.108-.471-10.617-.357-3.556-1.732-7.049-4.874-8.997-3.204-1.986-7.292-2.316-10.965-2.566-3.509-.239-7.037-.226-10.55-.079-2.565.107-2.578,4.108,0,4h0Z"></path><path class="i" d="M108.009,162.118c.243-.105.487-.21.73-.315.098-.042.512-.22.114-.051-.506.216.202-.076.4-.169.099-.046.196-.094.29-.148.3-.171.583-.395.849-.613.74-.607,1.317-1.442,1.705-2.313.887-1.991,1.184-4.236,1.413-6.389.111-1.044-.999-2.045-2-2-1.178.053-1.881.882-2,2-.013.12-.027.239-.04.359-.032.279.014-.106.026-.179-.036.218-.064.437-.099.655-.076.469-.159.937-.241,1.405-.076.434-.154.866-.265,1.293-.052.198-.109.395-.173.59-.038.115-.077.228-.12.341-.027.071-.16.408-.033.091.13-.323-.022.035-.044.08-.042.086-.086.171-.132.255-.09.164-.188.324-.295.478-.193.279-.018-.035.082-.098-.069.044-.158.183-.215.243-.062.065-.129.124-.192.187-.135.133-.289.129.116-.074-.157.079-.297.204-.454.287-.052.027-.387.172-.059.037.398-.163-.156.064-.358.151-.341.147-.682.294-1.023.442-.428.185-.801.768-.919,1.195-.132.479-.072,1.116.202,1.541.275.427.685.803,1.195.919.559.127,1.02.024,1.541-.202h0Z"></path><path class="i" d="M134.669,151.991c.237,2.389.461,5.032,1.747,7.128.632,1.03,1.535,1.967,2.625,2.512,1.057.528,2.208.908,3.317,1.309.985.356,2.233-.4,2.46-1.397.256-1.126-.342-2.079-1.397-2.46-.522-.189-1.044-.38-1.562-.579-.214-.082-.427-.165-.639-.251-.079-.032-.388-.16-.043-.016.328.137.076.035.001-.002-.195-.098-.386-.196-.569-.317-.053-.035-.106-.071-.157-.109-.121-.088-.07-.048.155.119.005-.013-.217-.194-.233-.209-.075-.072-.148-.146-.218-.223-.079-.087-.174-.338-.084-.084.095.269-.01-.017-.066-.1-.07-.104-.137-.211-.201-.319-.107-.183-.199-.373-.293-.563-.191-.386.106.303.027.064-.034-.102-.076-.202-.111-.303-.148-.433-.26-.877-.345-1.326-.106-.56-.197-1.124-.28-1.688-.078-.527.052.438-.01-.073-.012-.097-.024-.193-.035-.29-.032-.274-.061-.548-.088-.822-.103-1.038-.846-2.052-2-2-.995.045-2.111.885-2,2h0Z"></path><path class="i" d="M118.756,79.566c-.741-1.571-1.703-3.209-2.955-4.423-1.26-1.221-2.797-2.085-4.374-2.824-3.756-1.759-8.211-2.206-12.242-1.201-4.073,1.016-7.751,3.376-10.272,6.738-2.768,3.693-3.295,8.19-4.492,12.504-1.165,4.199-4.06,8.022-7.991,9.968-1.398.692-1.2,2.711,0,3.454,2.857,1.769,6.064,2.849,9.452,2.609,2.904-.206,6.21-.711,8.707-2.309l-1.009.273h.01c2.574,0,2.578-4,0-4-.717,0-1.215.444-1.83.728-.5.231-1.034.393-1.563.543-1.263.359-2.566.609-3.873.728-2.899.265-5.409-.5-7.875-2.027v3.454c3.382-1.675,6.119-4.573,7.951-7.844,1.973-3.523,2.364-7.444,3.551-11.237s3.552-6.756,7.1-8.562c3.272-1.666,7.083-1.955,10.609-.987,1.619.445,3.29,1.228,4.639,2.237,1.381,1.033,2.279,2.661,3.003,4.195,1.097,2.327,4.547.299,3.454-2.019h0Z"></path><path class="i" d="M126.799,325.281c.967,12.778,1.854,25.563,2.84,38.34.424,5.493,1.251,11.139.94,16.65-.145,2.572,3.855,2.564,4,0,.275-4.871-.416-9.832-.789-14.686-.279-3.626-.563-7.251-.833-10.877-.498-6.693-.98-13.388-1.468-20.082-.227-3.115-.454-6.23-.69-9.345-.193-2.551-4.195-2.572-4,0h0Z"></path><path class="i" d="M153.244,381.346c-1.534-1.761-1.472-3.626-1.442-5.841.023-1.698.072-3.395.135-5.092.148-4.017.373-8.031.628-12.042.519-8.145,1.17-16.283,1.909-24.411.284-3.125.579-6.25.916-9.37.116-1.076-1.003-2-2-2-1.178,0-1.883.921-2,2-1.647,15.211-2.888,30.533-3.453,45.823-.072,1.954-.127,3.908-.143,5.863-.011,1.336-.042,2.726.322,4.025.415,1.48,1.303,2.73,2.3,3.873,1.694,1.944,4.513-.894,2.828-2.828h0Z"></path><path class="i" d="M131.879,359.275c6.213.251,12.461.143,18.674-.047,2.568-.078,2.579-4.079,0-4-6.213.189-12.461.297-18.674.047-2.574-.104-2.569,3.896,0,4h0Z"></path><path class="i" d="M153.159,120.902c.937-.784,2.532-.445,3.02.524.382.758.346,1.772.346,2.595,0,1.025-.1,2.028-.321,3.028-.411,1.86-1.134,3.778-2.321,5.292-.447.569-.962,1.117-1.531,1.266-.824.216-1.71.248-2.601.373-1.071.151-1.657,1.515-1.397,2.46.316,1.151,1.386,1.548,2.46,1.397,1.004-.142,2.515-.225,3.651-.764,1.268-.602,2.248-1.819,3.037-2.944,1.656-2.361,2.553-5.249,2.897-8.088.324-2.671.295-6.065-1.869-8.002-2.379-2.129-5.815-1.96-8.199.034-.829.693-.716,2.112,0,2.828.821.821,1.997.695,2.828,0h0Z"></path><path class="i" d="M148.745,132.504c-.058,1.362-.465,2.682-.907,3.963-.082.238-.179.473-.251.714-.099.333.217-.42.045-.103-.146.267-.261.553-.402.824-.887,1.707-1.962,3.331-3.121,4.864-2.666,3.526-6.307,7.262-10.77,8.26-2.511.562-1.448,4.419,1.063,3.857,5.462-1.222,9.75-5.601,13.012-9.903,2.764-3.645,5.13-7.787,5.33-12.476.109-2.574-3.891-2.569-4,0h0Z"></path><path class="i" d="M97.444,118.074c-2.379-1.989-5.826-2.168-8.199-.034-2.306,2.074-2.189,5.715-1.798,8.534.707,5.096,4.368,12.825,10.7,11.516,1.058-.219,1.67-1.467,1.397-2.46-.302-1.099-1.399-1.616-2.46-1.397-1.372.284-2.632-1.12-3.357-2.122-1.141-1.577-1.837-3.473-2.221-5.368-.192-.949-.265-1.91-.257-2.878.007-.769-.021-1.735.346-2.439.5-.959,2.075-1.314,3.02-.524.828.692,2.017.812,2.828,0,.712-.712.832-2.132,0-2.828h0Z"></path><path class="i" d="M95.3,132.739c1.058,5.451,3.341,10.571,7.089,14.71,3.776,4.17,8.747,7.621,14.413,8.444,1.068.155,2.149-.264,2.46-1.397.258-.94-.321-2.304-1.397-2.46-5.065-.735-9.272-3.686-12.648-7.415-3.293-3.638-5.134-8.176-6.06-12.945-.206-1.061-1.476-1.667-2.46-1.397-1.109.305-1.603,1.396-1.397,2.46h0Z"></path><path class="i" d="M156.754,118.532c1.88-8.098.679-17.272-3.514-24.481-3.413-5.868-8.842-10.446-15.017-13.2-8.02-3.577-17.303-3.929-25.633-1.167-6.609,2.191-12.123,6.199-16.131,11.88-5.497,7.793-7.028,17.671-5.345,26.955.458,2.529,4.314,1.458,3.857-1.063-1.345-7.417-.25-15.332,3.623-21.841,3.029-5.09,7.27-8.84,12.65-11.167,12.72-5.503,29.021-2.043,37.196,9.529,4.692,6.642,6.292,15.584,4.456,23.492-.581,2.505,3.274,3.574,3.857,1.063h0Z"></path><path class="i" d="M144.955,408.811c3.251,3.044,7.248,5.048,11.654,5.788,4.224.709,9.045.535,12.837-1.668,3.83-2.225,5.858-6.643,4.324-10.917-1.499-4.176-5.237-7.092-8.308-10.104-3.86-3.786-7.681-7.619-11.103-11.813-.903-1.107-2.445-.511-3.141.405-2.923,3.845-8.508,2.89-12.263,1.078-1.209-.583-2.374-1.254-3.525-1.945-.907-.545-1.802-1.258-2.876-1.406-1.593-.219-2.865.811-3.548,2.176-1.27,2.538-1.402,5.66-1.525,8.447-.099,2.242-.302,4.559.294,6.755.622,2.291,2.145,3.801,4.084,5.06,2.217,1.438,4.604,2.206,7.006,3.225,2.445,1.037,4.211,3.127,6.089,4.92,1.862,1.778,4.695-1.047,2.828-2.828-1.661-1.586-3.233-3.28-5.148-4.571-1.836-1.237-3.985-1.692-5.956-2.64-1.556-.748-3.821-1.711-4.692-3.308-.925-1.695-.631-3.94-.543-5.789.119-2.484.045-5.074,1.059-7.362-.115.259.2-.27.223-.366-.03.123-.13.134-.195.14-.159.014-.484.03-.63.065-.2.047-.181-.308-.016.005.233.44,1.453.89,1.911,1.162,2.244,1.333,4.605,2.57,7.132,3.272,5.072,1.409,10.481.222,13.744-4.07l-3.141.405c2.537,3.11,5.293,6.026,8.125,8.866,2.785,2.793,5.848,5.411,8.439,8.385,2.108,2.418,3.226,5.776.666,8.296-2.482,2.443-6.647,2.701-9.918,2.415-4.136-.362-8.039-2.077-11.06-4.905-1.878-1.758-4.712,1.064-2.828,2.828Z"></path><path class="i" d="M118.819,380.551c-.267-4.858.477-9.796.896-14.63.317-3.659.634-7.317.938-10.977.555-6.682,1.098-13.365,1.649-20.048.262-3.169.523-6.338.797-9.505.221-2.564-3.78-2.549-4,0-1.109,12.853-2.101,25.715-3.214,38.568-.474,5.471-1.369,11.095-1.066,16.592.141,2.56,4.142,2.576,4,0h0Z"></path><path class="i" d="M94.509,324.481c1.186,14.776,2.473,29.561,2.981,44.379.066,1.931.116,3.862.134,5.793.021,2.262.283,4.528-1.299,6.353-1.679,1.937,1.138,4.778,2.828,2.828,1.814-2.092,2.46-4.262,2.476-7.004.01-1.659-.013-3.317-.052-4.975-.093-3.979-.277-7.956-.495-11.93-.457-8.344-1.073-16.678-1.732-25.008-.275-3.479-.562-6.958-.841-10.437-.205-2.548-4.206-2.57-4,0h0Z"></path><path class="i" d="M117.722,355.363c-6.215.194-12.461.03-18.673-.216-2.574-.102-2.57,3.898,0,4,6.211.246,12.458.41,18.673.216,2.568-.08,2.579-4.081,0-4h0Z"></path><path class="i" d="M102.134,405.983c-2.72,2.547-6.011,4.074-9.678,4.724-3.324.589-7.401.438-10.318-1.444-1.212-.782-2.253-2.039-2.49-3.495-.266-1.629.478-3.222,1.364-4.538,1.028-1.528,2.476-2.77,3.783-4.053,1.438-1.411,2.882-2.817,4.313-4.236,3.234-3.206,6.398-6.485,9.279-10.016l-3.141-.405c2.872,3.779,7.356,5.158,11.97,4.455,2.522-.384,4.927-1.449,7.155-2.657,1.116-.605,2.197-1.268,3.282-1.927.681-.414.548-.247-.017-.229-.058.002-.542-.169-.306-.092-.033-.011-.08-.052-.079-.051.056.198.27.529.441,1.121.201.695.337,1.411.445,2.126.143.944.24,2.253.29,3.359.083,1.822.347,3.791-.06,5.588-.443,1.951-1.953,2.843-3.605,3.768-2.148,1.203-4.57,1.736-6.695,2.946-2.277,1.296-4.057,3.266-5.932,5.057-1.866,1.781.966,4.607,2.828,2.828,1.673-1.597,3.233-3.399,5.285-4.524.916-.502,1.916-.752,2.882-1.133,1.193-.471,2.361-1.009,3.485-1.627,1.904-1.049,3.928-2.332,4.923-4.34,1.02-2.059,1.072-4.406.977-6.656-.123-2.935-.146-6.075-1.097-8.882-.482-1.423-1.284-2.944-2.852-3.366-2.075-.558-4.156,1.439-5.821,2.365-4.065,2.262-10.588,4.4-14.044-.147-.696-.915-2.238-1.511-3.141-.405-2.979,3.652-6.261,7.033-9.61,10.344-1.707,1.688-3.43,3.359-5.138,5.046-1.51,1.491-3.005,3.038-3.978,4.949-2.048,4.019-1.365,8.622,2.228,11.509,3.338,2.682,8.074,3.331,12.229,2.925,5.153-.503,9.89-2.514,13.674-6.058,1.883-1.763-.95-4.588-2.828-2.828Z"></path><path class="i" d="M102.661,118.723c7.458-3.784,13.82-9.363,20.764-13.958l-2.938-2.259c-.702,1.793-1.478,3.645-1.729,5.566-.12.922-.039,1.879.662,2.57.912.9,2.233.63,3.365.444,5.133-.844,9.888-4.38,13.228-8.216,1.684-1.933-1.134-4.774-2.828-2.828-1.802,2.069-3.869,3.855-6.251,5.226-1.009.581-2.05,1.086-3.157,1.45-.522.171-1.052.317-1.591.426-.179.036-.357.072-.538.095-.286.036-.929-.135-.248.089l.883.514c.215.218.344.468.386.75.026.179.036.16.033-.058-.124.141.033-.161.08-.352.125-.51.271-1.012.432-1.512.338-1.047.729-2.077,1.13-3.101.636-1.623-1.551-3.176-2.938-2.259-6.944,4.595-13.306,10.174-20.764,13.958-2.296,1.165-.274,4.617,2.019,3.454h0Z"></path><path class="i" d="M132.671,101.989c2.029,6.307,7.431,11.483,13.12,14.606.947.52,2.181.232,2.736-.718.536-.916.232-2.215-.718-2.736-2.771-1.521-5.046-3.298-7.191-5.635-1.004-1.094-1.659-1.922-2.458-3.196-.375-.598-.721-1.214-1.029-1.85-.071-.146-.138-.293-.205-.44-.15-.326.019.061-.058-.136-.123-.317-.237-.635-.342-.958-.331-1.028-1.387-1.692-2.46-1.397-1.01.278-1.729,1.428-1.397,2.46h0Z"></path><path class="i" d="M155.469,220.941c.527,13.908,3.708,27.363,6.567,40.926,2.457,11.653,4.831,23.326,6.637,35.1,1.108,7.223,2.063,14.486,2.735,21.764l.586-1.414c-.123.139-.242.282-.373.413.239-.239.237-.121-.015-.023-.114.045-.428.212-.134.084-.221.096-.454.17-.682.246-1.156.38-2.355.632-3.548.861-3.201.613-6.448.978-9.693,1.261-7.543.658-15.143.745-22.711.811-12.157.105-24.323-.122-36.453-1.007-4.38-.319-8.766-.614-13.132-1.103-1.672-.187-3.342-.406-4.991-.743-.624-.128-1.246-.27-1.856-.454-.641-.193-.619-.166-1.109-.44l.991,1.727c1.331-12.5,3.634-24.926,5.963-37.272,2.385-12.648,4.977-25.258,7.256-37.927,1.28-7.114,2.293-14.28,2.681-21.502.138-2.572-3.862-2.565-4,0-.684,12.726-3.38,25.248-5.804,37.729-2.453,12.634-4.978,25.256-7.083,37.954-1.157,6.975-2.264,13.984-3.013,21.017-.071.67.429,1.412.991,1.727,2.019,1.132,4.483,1.451,6.737,1.772,3.432.489,6.887.791,10.342,1.064,6.867.541,13.735.965,20.619,1.206,12.128.425,24.291.406,36.417-.07,6.673-.262,13.466-.703,20.008-2.117,1.723-.372,3.809-.777,5.12-2.048s.767-2.982.594-4.602c-.199-1.87-.41-3.738-.632-5.605-1.608-13.49-3.932-26.861-6.654-40.168-3.329-16.277-7.731-32.496-8.363-49.169-.097-2.566-4.098-2.579-4,0h0Z"></path><path class="i" d="M106.578,165.619c5.944,2.299,12.425,3.846,18.832,3.648,6.092-.188,12.25-1.692,17.901-3.928,1.004-.397,1.705-1.338,1.397-2.46-.263-.956-1.45-1.797-2.46-1.397-5.32,2.105-11.098,3.608-16.838,3.785-6.077.187-12.136-1.326-17.769-3.505-1.008-.39-2.194.43-2.46,1.397-.311,1.13.386,2.069,1.397,2.46h0Z"></path><path class="i" d="M105.579,176.862c3.142,2.59,6.878,3.534,10.882,2.672,3.787-.815,7.009-3.193,9.756-5.822h-2.828c2.742,2.626,5.969,5.02,9.756,5.822,4.078.864,7.862-.104,11.022-2.802,1.96-1.674-.88-4.492-2.828-2.828-4.969,4.244-11.14.792-15.122-3.02-.793-.759-2.033-.762-2.828,0-3.911,3.744-10.027,7.234-14.982,3.15-1.972-1.625-4.817,1.189-2.828,2.828h0Z"></path><path class="i" d="M152.44,167.068c1.322.822,2.605,1.7,3.851,2.635l.168.128c-.099-.077-.095-.074.011.009.138.108.275.217.412.326.3.241.597.485.891.733.586.495,1.158,1.005,1.716,1.532,1.559,1.471,3.007,3.064,4.507,4.595.733.749,2.103.79,2.828,0,.739-.805.782-2.03,0-2.828-1.548-1.58-3.042-3.227-4.659-4.738-2.358-2.202-4.968-4.142-7.706-5.845-.89-.553-2.241-.22-2.736.718-.518.981-.232,2.146.718,2.736h0Z"></path><path class="i" d="M142.951,203.932c1.01,4.462,3.389,8.785,6.119,12.438,1.133,1.516,2.352,2.998,3.784,4.244,1.366,1.189,3.146,2.489,5.066,2.327,1.058-.089,2.027-.844,2-2-.058-2.509-.065-5.021-.01-7.53.056-2.575-3.944-2.574-4,0-.055,2.509-.048,5.021.01,7.53l2-2c-.147.012-.288.009-.435.006.474.007.069.012-.078-.051-.504-.215.357.219-.158-.053-.164-.087-.329-.171-.488-.267-.653-.392-.932-.637-1.565-1.233-.643-.606-1.244-1.257-1.816-1.931-.244-.287-.481-.579-.714-.874-.088-.112-.081-.102.021.029-.055-.072-.109-.143-.163-.216-.1-.135-.2-.27-.298-.406-2.386-3.321-4.511-7.068-5.417-11.076-.238-1.054-1.453-1.674-2.46-1.397-1.083.298-1.636,1.403-1.397,2.46h0Z"></path><path class="i" d="M145.109,181.481c-.536-7.359-.525-14.673-.15-22.04l-2.532,1.929c3.502,1.075,6.813,2.967,9.952,4.828l-.991-1.727c.239,2.032.096,4.124.149,6.167.092,3.511.405,7.029.841,10.513.134,1.072.823,2,2,2,.977,0,2.135-.921,2-2-.424-3.387-.719-6.802-.832-10.215-.065-1.971.002-3.948-.113-5.918-.031-.528-.044-1.09-.318-1.557-.314-.536-.863-.806-1.377-1.104-.924-.534-1.859-1.051-2.802-1.551-2.387-1.265-4.856-2.5-7.445-3.295-1.3-.399-2.468.675-2.532,1.929-.375,7.367-.386,14.681.15,22.04.079,1.077.863,2,2,2,1.022,0,2.079-.917,2-2h0Z"></path><path class="i" d="M97.148,183.932c.626-4.159,1.026-8.343,1.205-12.545.098-2.294-.09-4.634.176-6.917l-.991,1.727c3.145-1.855,6.45-3.747,9.952-4.828l-2.532-1.929c.4,7.959.092,15.928-.33,23.88-.137,2.572,3.864,2.565,4,0,.422-7.952.73-15.921.33-23.88-.063-1.252-1.233-2.329-2.532-1.929-2.666.823-5.206,2.104-7.661,3.413-.967.515-1.94,1.033-2.876,1.601-1.181.716-1.378,1.685-1.426,2.963-.219,5.83-.301,11.587-1.173,17.379-.161,1.067.268,2.15,1.397,2.46.945.26,2.298-.322,2.46-1.397h0Z"></path><path class="i" d="M89.099,216.471c.003,2.026.061,4.053.26,6.07.12,1.217,1.19,2.368,2.532,1.929,7.803-2.557,11.613-10.718,13.787-18.017.736-2.472-3.123-3.529-3.857-1.063-.482,1.618-1.019,3.22-1.631,4.794-.103.264-.21.525-.315.787.213-.529-.087.182-.146.309-.399.847-.849,1.669-1.34,2.466-1.799,2.915-4.205,5.767-7.561,6.867l2.532,1.929c-.199-2.017-.257-4.044-.26-6.07-.004-2.574-4.004-2.578-4,0h0Z"></path><path class="i" d="M104.77,158.405c-7.981,3.138-15.595,7.549-21.276,14.084-1.682,1.935,1.136,4.776,2.828,2.828,5.219-6.003,12.162-10.166,19.511-13.056,1.005-.395,1.705-1.34,1.397-2.46-.263-.957-1.449-1.794-2.46-1.397h0Z"></path><path class="i" d="M149.861,205.531c2.72,3.175,8.342,4.499,11.911,1.908,1.812-1.315,3.327-3.424,4.098-5.514.88-2.387.611-4.901-.138-7.284-1.355-4.317-2.888-8.89-5.998-12.286-3.065-3.347-7.809-4.289-12.162-4.203-2.156.042-4.453.28-5.964,2.017-2.017,2.319-1.617,5.323.223,7.578l1.414-3.414c-2.414.05-4.651,1.3-5.11,3.833-.477,2.63.707,5.221,3.235,6.2l-.478-3.655c-3.983,1.771-2.89,8.311,1.02,9.408v-3.857c-3.481,1.372-3.124,6.184-.262,8.07,1.37.903,3.043,1.115,4.646,1.221,1.328.088,2.784-.04,4.051.423,2.422.884,3.466-2.98,1.063-3.857-1.731-.632-3.733-.432-5.542-.597-.662-.061-1.687-.129-2.173-.639-.227-.239-.22-.462-.326-.75-.196-.529.537-.38-.393-.014,1.744-.687,2.045-3.283,0-3.857-.858-.241-.77-1.784-.065-2.097,1.747-.777.933-3.11-.478-3.655-.419-.162-.491-1.235-.386-1.582.171-.561.637-.582,1.197-.594,1.852-.038,2.482-2.106,1.414-3.414-.762-.933-.461-2.12.651-2.536.982-.367,2.277-.257,3.309-.244,3.073.041,6.308.799,8.411,3.188s3.096,5.402,4.141,8.352c.603,1.702,1.386,3.513,1.275,5.354-.091,1.525-.89,2.853-1.844,4.002-1.084,1.305-2.056,1.718-3.759,1.687-1.731-.032-3.041-.72-4.154-2.019-1.677-1.958-4.495.882-2.828,2.828h0Z"></path><path class="i" d="M143.245,188.331c1.833-.1,3.704-.062,5.524.178l-.532-.071c.524.072,1.049.162,1.552.332.992.335,2.23-.385,2.46-1.397.252-1.107-.335-2.102-1.397-2.46-1.26-.425-2.667-.503-3.986-.572-1.204-.063-2.416-.075-3.621-.01-1.043.057-2.05.879-2,2,.046,1.035.881,2.061,2,2h0Z"></path><path class="i" d="M142.412,194.569c1.268-.152,2.55-.202,3.827-.166.629.018,1.253.07,1.879.133.24.024-.549-.083-.161-.022.068.011.137.021.205.032.132.022.264.046.395.072.27.055.536.121.799.203.999.311,2.226-.367,2.46-1.397.247-1.086-.327-2.128-1.397-2.46-1.298-.404-2.71-.513-4.063-.558-1.315-.043-2.638.006-3.944.162-.549.066-1.008.18-1.414.586-.347.347-.608.916-.586,1.414.023.517.193,1.054.586,1.414.364.334.9.647,1.414.586h0Z"></path><path class="i" d="M143.131,199.912c1.479.007,2.965-.02,4.435.17l-.532-.071c.46.063.916.147,1.36.283,1,.306,2.225-.364,2.46-1.397.246-1.082-.326-2.132-1.397-2.46s-2.229-.424-3.345-.48c-.993-.05-1.988-.04-2.982-.045-1.046-.005-2.048.923-2,2,.049,1.088.879,1.995,2,2h0Z"></path><path class="i" d="M96.505,204.783c-1.673,1.728-5.196,2.607-7.092.694-.972-.981-1.819-2.337-2.169-3.675-.466-1.78.115-3.536.784-5.188,1.166-2.88,2.311-5.968,4.275-8.414,2.14-2.666,4.964-3.75,8.339-3.829,1.305-.03,2.789-.037,4.065.297,1.436.376,1.999,1.647.913,2.823-1.232,1.335-.307,3.273,1.414,3.414.445.036.894.123,1.037.559.153.468-.081,1.534-.598,1.698-1.552.494-2.074,2.826-.478,3.655.304.158.479.488.361,1.017-.062.278-.225.505-.362.749-.076.118-.17.221-.282.31.231-.101.187-.105-.132-.013-1.615.348-2.023,2.921-.478,3.655.583.277-.144-.168-.066-.246.013-.013.044.318.034.344-.089.235-.093.505-.269.705-.501.568-1.61.564-2.302.588-1.88.066-3.877-.245-5.71.294-2.464.725-1.415,4.586,1.063,3.857,1.263-.372,2.741-.139,4.043-.143,1.54-.004,3.236-.125,4.602-.913,2.601-1.502,3.933-6.369.625-7.94l-.478,3.655c4.086-.882,5.146-7.412,1.371-9.374l-.478,3.655c2.489-.792,3.773-3.338,3.497-5.862-.294-2.695-2.477-4.046-4.999-4.253l1.414,3.414c1.737-1.881,2.339-4.431,1.074-6.759-1.077-1.982-3.192-2.766-5.314-3.003-4.133-.461-8.746-.183-12.208,2.374-3.786,2.796-5.518,7.173-7.296,11.349-1.008,2.367-1.908,4.794-1.535,7.408.332,2.324,1.497,4.354,2.988,6.137,3.298,3.941,9.823,3.248,13.175-.214,1.791-1.85-1.034-4.682-2.828-2.828h0Z"></path><path class="i" d="M107.036,186.905c-1.2-.139-2.413-.202-3.621-.212-1.325-.011-2.73.013-4.016.361-1.01.273-1.728,1.436-1.397,2.46.335,1.035,1.378,1.69,2.46,1.397.261-.071.526-.118.793-.157l-.532.071c2.068-.277,4.245-.161,6.313.079.475.055,1.092-.263,1.414-.586.347-.347.608-.916.586-1.414-.023-.517-.193-1.054-.586-1.414-.416-.382-.857-.521-1.414-.586h0Z"></path><path class="i" d="M108.019,193.264c-1.452-.264-2.931-.428-4.407-.473-1.379-.042-2.805.011-4.151.341-1.017.249-1.723,1.453-1.397,2.46.342,1.055,1.371,1.664,2.46,1.397.203-.05.519-.173.726-.142-.032-.005-.517.063-.233.032.086-.009.172-.019.258-.028.143-.014.286-.025.429-.034.635-.041,1.272-.045,1.908-.025s1.275.063,1.91.127c.154.016.309.032.463.051.094.011.189.024.283.035.259.031-.453-.066-.199-.026.296.046.592.09.887.144.539.098,1.054.084,1.541-.202.415-.243.811-.718.919-1.195.223-.979-.296-2.26-1.397-2.46h0Z"></path><path class="i" d="M106.442,198.491c-2.104-.119-4.28-.328-6.354.17-1.018.245-1.722,1.456-1.397,2.46.343,1.059,1.37,1.659,2.46,1.397.234-.056.47-.099.708-.132l-.532.071c1.693-.222,3.417-.063,5.114.033,1.046.059,2.046-.962,2-2-.051-1.134-.879-1.937-2-2h0Z"></path><path class="i" d="M118.744,141.488c1.51,1.478,3.846,1.953,5.883,1.952s4.374-.473,5.884-1.952c.749-.733.79-2.103,0-2.828-.805-.739-2.029-.782-2.828,0-.077.075-.368.307-.037.052.343-.264-.035.015-.132.074-.116.071-.235.137-.357.198-.08.04-.171.072-.248.117.097-.056.47-.179.155-.071-.39.134-.782.249-1.188.325-.066.012-.132.024-.198.034-.151.024-.089.017.187-.022-.104.041-.256.028-.365.037-.29.024-.581.036-.873.036-.266,0-.533-.009-.799-.029-.132-.01-.309-.053-.44-.043.194-.015.357.054.055,0-.409-.073-.813-.177-1.204-.319-.161-.058-.42-.227.106.053-.067-.036-.14-.063-.208-.097-.135-.066-.268-.138-.396-.217-.098-.06-.188-.134-.286-.194.579.353.28.226.117.067-.748-.733-2.092-.802-2.828,0-.726.791-.799,2.046,0,2.828h0Z"></path><path class="i" d="M123.446,128.932c.234.891.458,1.797.592,2.709l-.071-.532c.016.125.023.248.01.374l.071-.532c-.009.058-.022.113-.041.168l.202-.478c-.017.039-.035.073-.059.108l.313-.405c-.028.034-.054.06-.089.087l.405-.313c-.068.044-.141.08-.215.114l.478-.202c-.118.049-.235.085-.362.106l.532-.071c-.114.014-.225.013-.339,0l.532.071c-.128-.018-.254-.049-.382-.066-.266-.083-.532-.095-.798-.036-.266.012-.514.091-.744.237-.415.243-.811.718-.919,1.195-.117.512-.091,1.087.202,1.541l.313.405c.25.248.544.419.883.514.346.047.681.133,1.033.148.568.025,1.086-.154,1.591-.389.636-.295,1.138-.902,1.307-1.586.145-.586.086-1.052-.013-1.639-.147-.873-.349-1.738-.574-2.594-.127-.483-.49-.944-.919-1.195s-1.061-.357-1.541-.202c-.484.157-.951.457-1.195.919-.253.48-.342,1.007-.202,1.541h0Z"></path><path class="i" d="M109.71,121.597c-.452,1.47-.158,4.852,2.628,5.14,3.681-.022,3.877-4.111,2.638-6.034-1.015-1.574-3.998-2.229-5.266.893Z"></path><path class="i" d="M139.191,121.597c.453,1.47.158,4.852-2.628,5.14-3.682-.022-3.878-4.111-2.638-6.034,1.015-1.574,3.998-2.229,5.266.894Z"></path><path class="i" d="M149.888,205.996c2.142,4.601,6.043,8.707,10.392,11.297,4.22,2.513,9.388,2.627,13.633.012,4.32-2.662,5.463-7.337,5.821-12.101.398-5.289-1.364-10.89-3.449-15.68-2.386-5.482-5.643-10.735-9.459-15.326-1.647-1.982-4.463.862-2.828,2.828,2.853,3.432,5.355,7.489,7.447,11.583,2.159,4.226,3.743,8.814,4.228,13.554.194,1.891.069,3.744-.281,5.612-.339,1.81-.717,3.537-2.018,4.885-2.532,2.623-6.831,3.372-10.073,1.732-4.267-2.159-7.948-6.096-9.959-10.414-.456-.979-1.866-1.227-2.736-.718-1.004.587-1.175,1.754-.718,2.736h0Z"></path><path class="i" d="M83.495,172.489c-4.051,5.209-7.397,10.884-10.191,16.858-2.658,5.684-4.67,11.627-5.528,17.858-.437,3.179-.831,6.517-.076,9.68.667,2.791,2.396,5.111,4.758,6.706,4.148,2.801,9.489,2.825,13.588.028,5.227-3.567,9.304-9.14,11.869-14.864.441-.985.285-2.15-.718-2.736-.855-.5-2.292-.273-2.736.718-2.055,4.586-5.015,8.854-8.817,12.166-1.273,1.109-2.788,2.261-4.4,2.673-1.852.473-4.046.051-5.719-.818-2.021-1.049-3.431-2.706-3.967-4.936-.629-2.614-.217-5.57.167-8.194.794-5.432,2.482-10.702,4.766-15.685,2.679-5.845,5.88-11.542,9.833-16.625.662-.852.831-1.998,0-2.828-.69-.69-2.162-.858-2.828,0h0Z"></path></g></g></g></svg>